<svg xmlns="http://www.w3.org/2000/svg" width="97" height="89" viewBox="0 0 97 89"><style>.a{fill:#FFF;}.b{fill:#00053E;}.c{fill:#B2B5DB;}.d{fill:#FFD600;}</style><title>  logo &#x2F; morton &#x2F; white</title><desc>  Created with Sketch.</desc><defs><polygon points="0.5 0.1 3.5 0.1 3.5 4.9 0.5 4.9 0.5 0.1"/></defs><g fill="none"><path d="M73.5 80C73.5 76.6 72.1 74.9 69.8 74.9 67.5 74.9 66 76.6 66 80 66 83.2 67.3 85.2 69.8 85.2 72.2 85.2 73.5 83.2 73.5 80M62 80C62 75.2 64.6 71.1 69.7 71.1 74.8 71.1 77.5 75.2 77.5 80 77.5 85 74.7 88.9 69.7 88.9 64.7 88.9 62 85 62 80" class="a"/><path d="M30.6 80C30.6 76.6 29.2 74.9 26.9 74.9 24.6 74.9 23.1 76.6 23.1 80 23.1 83.2 24.4 85.2 26.9 85.2 29.3 85.2 30.6 83.2 30.6 80M19.1 80C19.1 75.2 21.8 71.1 26.8 71.1 31.9 71.1 34.6 75.2 34.6 80 34.6 85 31.8 88.9 26.8 88.9 21.8 88.9 19.1 85 19.1 80" class="a"/><path d="M88.8 87.9C88.2 86.8 83.1 79.3 82.5 78.4L82.4 78.3 82.4 88.1C82.4 88.4 82.2 88.6 81.9 88.6L79.2 88.6C79 88.6 78.7 88.4 78.7 88.1L78.7 72C78.7 71.7 79 71.5 79.2 71.5L82.3 71.5C82.6 71.5 82.9 71.7 83 71.9L89.1 81.3 89.1 72C89.1 71.7 89.3 71.5 89.6 71.5L92.3 71.5C92.6 71.5 92.8 71.7 92.8 72L92.8 88C92.8 88.4 92.5 88.6 92.2 88.6 92 88.6 90.4 88.6 90 88.6 89.6 88.6 89.2 88.5 88.8 87.9" class="a"/><path d="M54.6 88.6C54.3 88.6 54.1 88.3 54.1 88L54.1 75.3C54.1 75.1 54 75 53.9 75L50.5 75C50.2 75 50 74.8 50 74.5L50 72C50 71.7 50.2 71.5 50.5 71.5L61.8 71.5C62.1 71.5 62.3 71.7 62.3 72L62.3 74.5C62.3 74.8 62.1 75 61.8 75L58.4 75C58.3 75 58.2 75.1 58.2 75.3L58.2 88C58.2 88.3 57.9 88.6 57.7 88.6L54.6 88.6Z" class="a"/><path d="M40.1 79.3L43.2 79.3C44.7 79.3 45.7 78.4 45.7 77.1L45.7 77.1C45.7 75.7 44.8 74.9 43.1 74.9L40.1 74.9 40.1 79.3ZM48.6 88.9C46.7 88.9 45.7 87.9 44.3 86 43.3 84.6 42.2 82.6 42.2 82.6L40.1 82.6 40.1 88.1C40.1 88.4 39.8 88.6 39.6 88.6L36.5 88.6C36.3 88.6 36 88.3 36 88.1L36 72C36 71.7 36.2 71.5 36.5 71.5L43.4 71.5C45.4 71.5 47 72.1 48.1 73.2 49 74.1 49.5 75.4 49.5 76.9L49.5 76.9C49.5 79.3 48.3 81 46.2 81.8L46.2 81.9C46.2 81.9 47.1 83.3 48.1 84.7 49.1 86 50.2 86.8 50.7 87.1 51 87.2 51 87.3 50.9 87.6 50.9 87.9 50.4 88.9 48.6 88.9Z" class="a"/><path d="M8.5 84.5C8.1 84.5 7.8 84.3 7.7 84 7.5 83.8 5 78.7 4.1 76.9L4.1 88.1C4.1 88.3 3.9 88.6 3.5 88.6L0.5 88.6C0.2 88.6 0 88.4 0 88.1L0 72.3C0 71.9 0.2 71.5 0.7 71.5 1.1 71.5 4.1 71.5 4.4 71.5 5 71.5 5.3 71.6 5.6 72.3 5.9 72.8 8.9 78.6 8.9 78.6 8.9 78.6 11.9 72.8 12.1 72.3 12.4 71.6 12.8 71.5 13.3 71.5 13.7 71.5 16.6 71.5 17 71.5 17.5 71.5 17.7 71.8 17.7 72.3L17.7 88.1C17.7 88.4 17.6 88.6 17.2 88.6L14.2 88.6C13.8 88.6 13.7 88.3 13.7 88.1L13.7 76.9C12.7 78.7 10.2 83.8 10 84 9.9 84.3 9.8 84.5 9.2 84.5L8.5 84.5Z" class="a"/><path d="M95.1 72.8L95.3 72.8C95.5 72.8 95.7 72.7 95.7 72.5 95.7 72.4 95.6 72.3 95.3 72.3 95.2 72.3 95.2 72.3 95.1 72.3L95.1 72.8ZM95.1 73.6L94.9 73.6 94.9 72.1C95 72.1 95.1 72.1 95.3 72.1 95.5 72.1 95.7 72.1 95.8 72.2 95.9 72.3 95.9 72.4 95.9 72.5 95.9 72.7 95.8 72.8 95.6 72.9L95.6 72.9C95.8 72.9 95.8 73 95.9 73.3 95.9 73.5 95.9 73.6 96 73.6L95.7 73.6C95.7 73.6 95.6 73.4 95.6 73.2 95.6 73 95.5 73 95.3 73L95.1 73 95.1 73.6ZM95.4 71.7C94.8 71.7 94.3 72.2 94.3 72.8 94.3 73.5 94.8 74 95.4 74 96 74 96.5 73.5 96.5 72.8 96.5 72.2 96 71.7 95.4 71.7L95.4 71.7ZM95.4 71.5C96.1 71.5 96.7 72.1 96.7 72.8 96.7 73.6 96.1 74.2 95.4 74.2 94.6 74.2 94 73.6 94 72.8 94 72.1 94.6 71.5 95.4 71.5L95.4 71.5Z" class="a"/><path d="M56.3 48.8L56.4 48.8C56.6 48.8 56.7 48.7 56.7 48.6 56.7 48.5 56.6 48.4 56.4 48.4 56.4 48.4 56.3 48.4 56.3 48.4L56.3 48.8ZM56.3 49.4L56.1 49.4 56.1 48.3C56.2 48.2 56.3 48.2 56.4 48.2 56.6 48.2 56.7 48.3 56.8 48.3 56.8 48.4 56.9 48.4 56.9 48.6 56.9 48.7 56.8 48.8 56.7 48.8L56.7 48.8C56.8 48.9 56.8 48.9 56.8 49.1 56.9 49.3 56.9 49.4 56.9 49.4L56.7 49.4C56.7 49.4 56.7 49.3 56.6 49.1 56.6 49 56.5 48.9 56.4 48.9L56.3 48.9 56.3 49.4ZM56.5 47.9C56 47.9 55.7 48.3 55.7 48.8 55.7 49.3 56 49.7 56.5 49.7 56.9 49.7 57.3 49.3 57.3 48.8 57.3 48.3 56.9 47.9 56.5 47.9L56.5 47.9ZM56.5 47.8C57 47.8 57.5 48.2 57.5 48.8 57.5 49.4 57 49.8 56.5 49.8 55.9 49.8 55.5 49.4 55.5 48.8 55.5 48.2 55.9 47.8 56.5 47.8L56.5 47.8Z" class="a"/><path d="M55.9 23C50.1 16.3 40.8 16.7 38.7 16.9L38.7 17C39.2 19.6 36.7 21.2 33.5 22.1L33.5 22.1C34.7 23.6 35.1 25.8 34.6 27.9 34.3 28.8 33.9 29.7 33.3 30.6 33 31.1 32.6 31.6 32.1 32L32.1 32C33.1 32.2 34.2 33 35.2 34L35.9 34.8C36.3 35.3 36.7 35.9 37 36.5 37.7 37.9 38.1 38.6 38.3 39.4 38.2 39.4 38.1 39.5 38 39.6 37.7 39.9 37.6 40 37.5 40.2 37.3 40.3 37.3 40.6 37.3 40.9 37.3 41.1 37.3 41.3 37.4 41.5L36.2 42.5C36 42.5 35.9 42.5 35.8 42.6L34.2 43.9 34.2 43.9C33.9 44.2 33.7 44.6 33.7 45 33.7 45.8 34.4 46.5 35.3 46.5 35.7 46.5 36.2 46.3 36.5 45.9 36.6 45.7 36.6 45.4 36.4 45.3 36.2 45.1 35.9 45.1 35.7 45.3 35.6 45.5 35.4 45.6 35.3 45.6 34.9 45.6 34.7 45.3 34.7 45 34.7 44.8 34.7 44.7 34.8 44.6L36.4 43.3C36.5 43.2 36.5 43.1 36.5 42.9L37.7 41.9C37.9 42.1 38 42.2 38.1 42.3 38.2 42.3 38.3 42.3 38.3 42.3 38.5 42.3 38.5 42 38.4 41.8 38.6 41.9 38.8 41.9 38.9 41.8 39 41.7 39 41.6 38.9 41.5 38.9 41.5 38.9 41.4 38.9 41.4 39 41.3 39.1 41.1 39.2 40.9 40.1 41.3 40.8 42 41.2 42.4 40.8 42.8 40.4 43.2 39.9 43.8 39.1 44.7 38.3 45.4 37.6 46.6 37.5 46.6 37.5 46.7 37.7 46.8 38.6 47.5 40 48.2 40.9 48.6 41.5 48.9 42.8 49.3 43.2 49.4 43.1 50.5 42.9 51.8 42.7 52.2 42.5 52.9 42.4 53.3 42.4 53.8 42.4 54.4 42.5 54.5 42.4 54.9 42.3 55.3 41.8 57.3 41.4 58.9 40.9 60.6 40.4 62 40.1 62.6 39.4 63.7 38.8 64.1 38.3 64.1 37.8 64.2 37.2 64.1 36.6 63.8 35.8 63.5 35.5 63.5 35.2 63.7 35.1 63.8 35.1 63.9 35.1 64 35.1 64 35.2 64.1 35.4 64.4 35.7 64.7 36.3 65.3 36.8 65.6 37.4 66 37.6 65.9 38.2 66 38.8 66.1 39 66.2 39.1 66.3 39.1 66.3 39 66.6 39 66.6 39 66.6 38.9 66.8 39.4 67 39.9 67.2 40.3 67.4 40.6 67.3 40.7 67.3 40.9 67.1 41.1 66.8 41.3 66.4 41.5 65.7 41.5 65.7 41.5 65.7 41.8 64.3 42.1 63.4 42.1 63.3 42.1 63.2 42.1 63.2 42.2 63.1 42.2 63.1 42.2 63 42.6 61.9 43.7 59.9 44.5 58.7 45.2 57.4 45.3 56.4 45.4 55.3 45.5 54 45.8 53.7 46.2 52.9 46.6 52.1 47 51.3 47.2 50.9 47.4 51 47.6 51.1 48.1 51.2 48.4 52 48.9 53.4 49 53.6 49.1 53.9 49.3 54.5 49.6 54.9 50 55.5 50.2 55.5 50.5 56.2 50.7 56.7 51.3 57.9 51.8 58.9 52 59.5 52.9 61.3 52.9 62 53 62.6 53 62.8 53 63.1 53 63.1 53 63.3 53 63.3 53.1 63.5 53.1 63.7 53.1 63.9 53.1 64.6 53.1 65.3 53 65.7 53 66.7 53.1 67.8 54.1 67.7 54.5 67.7 54.9 67.5 55.2 67.1 55.8 66.3 55.6 65.4 55.6 64.8 55.5 64.5 55.3 63.7 55.2 63.4 55.2 63.3 55.1 63.3 55.1 63.2 55.1 63 54.4 61 54.2 59.6 54 58.2 53.9 57.5 53.6 56 53.2 54.4 52.8 54.3 52.5 53.1 52.2 52.3 52.1 52 52 51.2 52.4 51.1 52.6 51 52.6 51 52.6 51 53.3 50.8 53.8 50.6 54.1 50.5 54.7 50.2 54.7 50 54.7 49.9 54.6 48.7 54.3 46.9 54.6 46.8 54.9 46.7 55.2 46.7 57 46.4 58.6 47.5 58.6 47.5 58.6 47.5 58.7 45.1 59.2 42.9 59.8 40.7 61.8 39.3 61.8 39.3 61.8 39.3 61.8 29.7 55.9 23" class="b"/><path d="M39.9 40.6C39.8 40.7 39.6 40.8 39.4 40.9 39.7 41 40 41.1 40.3 41.3 40.8 41.7 41.1 42.1 41.3 42.4 41.7 41.9 42.1 41.6 42.4 41.3 41.9 41.3 41.2 40.8 40.7 40.7 40.4 40.6 40 40.6 39.9 40.6" class="c"/><path d="M53.4 42.6C53.7 43.5 54.3 46.6 54.3 46.6 54.5 46.6 54.7 46.5 55 46.4 57 46.1 58.4 47.3 58.6 47.5 58.6 47.5 58.6 47.5 58.6 47.5 58.6 47.4 58.2 45.4 58.9 42.9 59 42.2 59.3 41.6 59.6 41.1 59.9 40.6 60.4 40.2 60.4 40.2 61.1 39.5 61.7 39.2 61.7 39.2 61.7 39.2 60.8 35.9 60 34 59.3 32.2 57.5 29.3 55.9 29.1 55.9 29.1 55.8 29.1 55.7 29.1 56.2 26 51.5 21.3 48.3 21.4 48 21.4 47.8 21.5 47.5 21.5 47.8 18.7 41.2 17.2 38.7 17 38.7 17 38.7 17 38.7 17 38.7 17 39.6 18.7 37.7 20.4 36 21.9 33.8 22.1 33.5 22.1 33.7 22.3 35.5 24 35 27.2 34.5 30.7 32.1 32 32.1 32 32.1 32 32.8 32.1 33.8 32.7 34.9 33.3 36.2 34.4 37.1 35.8 37.9 37.3 38.3 38.5 38.4 39.3 38.5 39.2 38.6 39.2 38.6 39.2 38.8 39.1 39 39.1 39.2 39.1 39.5 39.1 39.9 39.1 40.2 39.1L44.5 35.3C44.6 35.1 44.7 34.9 44.8 34.8 45 34.1 45.2 33.9 45.8 33.6 46.1 33.5 46.6 33.4 46.8 33.3L47.1 33.1 50.8 32.1C50.8 32.3 50.9 32.4 50.9 32.4 51.1 32.6 51.5 32.8 51.7 32.9 52.2 33.1 52.8 33.2 53.2 33.3 54 33.5 54.3 33.9 54.8 34.7 55.4 35.7 56.4 37.2 57 38 57.1 38.1 57.2 38.3 57.3 38.5L53.4 42.6Z" class="c"/><path d="M42.4 38.6C42.7 38.5 43 38.5 43 38.5 43 38.5 43.2 38.4 43.3 38 43.5 37.2 43.8 37.1 43.9 36.7 44 36.6 44 36.5 44.1 36.4L41.3 38.8C41.6 38.7 42 38.6 42.4 38.6" class="c"/><path d="M47.1 33.2C46.8 33 46.3 32.3 46.2 32.1 45.7 32.1 45.3 31.9 44.9 31.7 44.1 31.3 43.8 31 43.7 30.3 43.9 30.4 44.3 30.3 44.5 30.2 44.2 30.2 43.9 30.2 43.6 30.1 43.4 30 43.2 29.7 43.3 29.5 43.3 29.4 43.4 29.3 43.6 29.3 43.6 29.4 43.6 29.4 43.7 29.5 44 29.5 44.3 29.2 44.4 29 45.2 27.5 46 25.4 48 25 49.1 24.7 50.4 25 51.2 25.8 51.4 26.1 51.6 26.4 51.8 26.7 51.9 26.9 52 27 52 27.2 52.4 27.9 52.7 29.5 52.3 30.6 52.1 31.3 51.8 31.5 51.4 31.8 51.2 31.9 50.9 32.1 50.7 32.1L47.1 33.2Z" class="b"/><path d="M38.9 17C41.6 17.1 47.5 18 47.7 21.3 47.9 21.2 48.3 21.2 48.5 21.2 51.8 21.1 56.3 25.3 55.8 28.9 56 28.9 56.1 28.9 56.2 28.9 57.7 29 59.5 31.8 60.3 33.7 61.1 35.6 61.7 39.2 61.7 39.2 61.7 39.2 61.5 29.9 55.7 23.2 49.8 16.5 41.1 16.8 38.9 17" class="a"/><path d="M61.4 52.8C61.4 52.9 61.2 52.9 61.2 52.9 61.1 52.9 61 52.8 61 52.7 61.1 52.7 61.2 52.6 61.2 52.6 61.3 52.6 61.4 52.8 61.4 52.8" class="a"/><path d="M60.8 48C60.8 48.1 60.7 48.2 60.6 48.2 60.6 48.2 60.5 48.1 60.5 48 60.5 47.9 60.6 47.8 60.7 47.9 60.8 47.9 60.8 48 60.8 48" class="a"/><path d="M61.8 46.9C61.8 47 61.7 47 61.6 47 61.6 47 61.5 46.9 61.5 46.8 61.5 46.7 61.6 46.7 61.7 46.7 61.8 46.7 61.8 46.8 61.8 46.9" class="a"/><path d="M59.9 46C59.8 46.1 59.7 46.1 59.6 46 59.6 46 59.5 45.8 59.6 45.7 59.7 45.6 59.8 45.7 59.9 45.7 60 45.8 59.9 46 59.9 46" class="a"/><path d="M60.8 45.6C60.7 45.7 60.6 45.6 60.6 45.5 60.5 45.4 60.6 45.3 60.7 45.3 60.8 45.3 60.9 45.4 60.9 45.4 60.9 45.5 60.8 45.6 60.8 45.6" class="a"/><path d="M60 45.4C59.9 45.4 59.8 45.3 59.8 45.2 59.8 45.2 59.9 45 59.9 45 60 45 60.1 45.1 60.2 45.2 60.2 45.2 60 45.4 60 45.4" class="a"/><path d="M63.4 49.5C63.4 49.5 63.2 49.4 63.2 49.3 63.2 49.2 63.3 49.1 63.4 49.1 63.5 49.1 63.6 49.2 63.6 49.2 63.6 49.3 63.5 49.4 63.4 49.5" class="a"/><path d="M64.8 52.7C64.7 52.7 64.6 52.6 64.6 52.5 64.6 52.4 64.6 52.3 64.7 52.3 64.8 52.3 64.9 52.4 64.9 52.4 64.9 52.5 64.8 52.6 64.8 52.7" class="a"/><path d="M60.6 61.3C60.5 61.3 60.4 61.2 60.4 61.2 60.4 61.1 60.4 61 60.5 60.9 60.6 60.9 60.7 61 60.7 61.1 60.8 61.2 60.6 61.3 60.6 61.3" class="a"/><path d="M59.9 52.8C59.8 52.8 59.7 52.7 59.7 52.6 59.7 52.6 59.7 52.5 59.8 52.4 59.9 52.4 60 52.5 60 52.6 60.1 52.7 59.9 52.8 59.9 52.8" class="a"/><path d="M64.8 65C64.8 65 64.6 64.9 64.6 64.8 64.6 64.8 64.7 64.6 64.8 64.6 64.9 64.6 65 64.7 65 64.8 65 64.9 64.9 65 64.8 65" class="a"/><path d="M62.2 45.9C62.2 46 62.1 46 62 46 61.9 46 61.9 45.8 61.9 45.8 62 45.7 62.1 45.7 62.2 45.7 62.2 45.8 62.2 45.9 62.2 45.9" class="a"/><path d="M61.2 46.5C61.1 46.5 61 46.4 61 46.3 61 46.2 61.1 46.1 61.2 46 61.3 46 61.4 46.2 61.4 46.2 61.4 46.3 61.3 46.5 61.2 46.5" class="a"/><path d="M60.6 47.1C60.6 47.1 60.5 47.1 60.5 47.1 60.4 47.1 60.4 47 60.4 47 60.4 46.9 60.5 46.9 60.5 46.9 60.6 47 60.6 47.1 60.6 47.1" class="a"/><path d="M60 47.6C60 47.6 59.9 47.6 59.8 47.6 59.8 47.6 59.8 47.5 59.8 47.5 59.8 47.4 59.9 47.4 59.9 47.4 60 47.4 60 47.5 60 47.6" class="a"/><path d="M59.7 49.8C59.7 49.9 59.6 49.9 59.6 49.9 59.6 49.9 59.5 49.8 59.5 49.7 59.6 49.7 59.6 49.7 59.7 49.7 59.7 49.7 59.7 49.8 59.7 49.8" class="a"/><path d="M71.2 65.9C71.2 66 71.1 66 71.1 66 71.1 66 71 65.9 71 65.8 71.1 65.8 71.1 65.8 71.2 65.8 71.2 65.8 71.2 65.9 71.2 65.9" class="a"/><path d="M73.1 65.8C73.1 65.8 73 65.8 73 65.8 72.9 65.8 72.9 65.7 72.9 65.7 72.9 65.6 73 65.6 73.1 65.6 73.1 65.6 73.1 65.7 73.1 65.8" class="a"/><path d="M71.2 67.2C71.2 67.2 71.1 67.3 71.1 67.2 71.1 67.2 71 67.1 71 67.1 71.1 67.1 71.1 67 71.2 67.1 71.2 67.1 71.2 67.2 71.2 67.2" class="a"/><path d="M70 65.1C70 65.1 69.9 65.1 69.9 65.1 69.9 65.1 69.8 65 69.9 65 69.9 64.9 70 64.9 70 64.9 70 64.9 70.1 65 70 65.1" class="a"/><path d="M67.3 66C67.3 66.1 67.2 66.1 67.2 66.1 67.2 66.1 67.1 66 67.1 65.9 67.2 65.9 67.2 65.9 67.3 65.9 67.3 65.9 67.3 66 67.3 66" class="a"/><path d="M63.1 63.3C63.1 63.3 63 63.3 63 63.3 63 63.3 62.9 63.2 63 63.2 63 63.1 63.1 63.1 63.1 63.1 63.1 63.1 63.2 63.2 63.1 63.3" class="a"/><path d="M63.8 61.6C63.8 61.6 63.7 61.6 63.7 61.6 63.7 61.6 63.6 61.5 63.7 61.5 63.7 61.4 63.8 61.4 63.8 61.4 63.8 61.5 63.9 61.6 63.8 61.6" class="a"/><path d="M66.7 59.9C66.7 59.9 66.6 60 66.6 59.9 66.5 59.9 66.5 59.8 66.5 59.8 66.5 59.7 66.6 59.7 66.7 59.7 66.7 59.8 66.7 59.9 66.7 59.9" class="a"/><path d="M59.9 55.7C59.9 55.8 59.8 55.8 59.8 55.8 59.7 55.8 59.7 55.7 59.7 55.6 59.7 55.6 59.8 55.6 59.9 55.6 59.9 55.6 59.9 55.7 59.9 55.7" class="a"/><path d="M66.7 64.1C66.7 64.1 66.6 64.2 66.6 64.2 66.5 64.1 66.5 64 66.5 64 66.5 63.9 66.6 63.9 66.7 63.9 66.7 64 66.7 64.1 66.7 64.1" class="a"/><path d="M67.2 62.3C67.2 62.4 67.1 62.4 67.1 62.4 67 62.4 67 62.3 67 62.3 67 62.2 67.1 62.2 67.2 62.2 67.2 62.2 67.2 62.3 67.2 62.3" class="a"/><path d="M65.6 63C65.6 63.1 65.5 63.1 65.5 63.1 65.4 63.1 65.4 63 65.4 63 65.4 62.9 65.5 62.9 65.5 62.9 65.6 62.9 65.6 63 65.6 63" class="a"/><path d="M64.5 62.3C64.5 62.3 64.4 62.4 64.3 62.4 64.2 62.3 64.2 62.2 64.2 62.1 64.2 62.1 64.4 62 64.4 62.1 64.5 62.1 64.5 62.3 64.5 62.3" class="a"/><path d="M64.6 64.1C64.6 64.2 64.5 64.2 64.4 64.2 64.4 64.2 64.3 64 64.3 64 64.4 63.9 64.5 63.9 64.5 63.9 64.6 63.9 64.6 64.1 64.6 64.1" class="a"/><path d="M68.9 66.4C68.9 66.5 68.7 66.6 68.7 66.5 68.6 66.5 68.5 66.4 68.6 66.3 68.6 66.2 68.7 66.2 68.8 66.2 68.9 66.3 68.9 66.4 68.9 66.4" class="a"/><path d="M68.1 62.3C68 62.3 67.9 62.4 67.8 62.3 67.8 62.3 67.7 62.2 67.8 62.1 67.8 62 67.9 62 68 62 68.1 62.1 68.1 62.2 68.1 62.3" class="a"/><path d="M66.2 61.1C66.2 61.1 66.1 61.2 66 61.1 66 61.1 65.9 61 66 61 66 60.9 66.1 60.9 66.1 60.9 66.2 61 66.2 61.1 66.2 61.1" class="a"/><path d="M62.9 65.2C62.9 65.3 62.8 65.3 62.8 65.3 62.7 65.3 62.7 65.2 62.7 65.2 62.7 65.1 62.8 65.1 62.9 65.1 62.9 65.1 62.9 65.2 62.9 65.2" class="a"/><path d="M61.9 64C61.9 64 61.8 64 61.8 64 61.8 64 61.7 63.9 61.7 63.9 61.7 63.8 61.8 63.8 61.9 63.8 61.9 63.8 61.9 63.9 61.9 64" class="a"/><path d="M66.3 66.6C66.3 66.6 66.2 66.7 66.2 66.6 66.1 66.6 66.1 66.5 66.1 66.5 66.1 66.4 66.2 66.4 66.2 66.4 66.3 66.5 66.3 66.6 66.3 66.6" class="a"/><path d="M68.9 67.3C68.9 67.3 68.8 67.4 68.8 67.3 68.7 67.3 68.7 67.2 68.7 67.2 68.7 67.1 68.8 67.1 68.9 67.1 68.9 67.2 68.9 67.3 68.9 67.3" class="a"/><path d="M62.9 60.2C62.9 60.3 62.8 60.3 62.8 60.3 62.8 60.3 62.7 60.2 62.7 60.2 62.8 60.1 62.8 60.1 62.9 60.1 62.9 60.1 62.9 60.2 62.9 60.2" class="a"/><path d="M62.4 60.9C62.4 60.9 62.3 60.9 62.3 60.9 62.3 60.9 62.2 60.8 62.3 60.8 62.3 60.7 62.4 60.7 62.4 60.7 62.4 60.7 62.5 60.8 62.4 60.9" class="a"/><path d="M63 58.2C63 58.2 62.9 58.2 62.8 58.2 62.8 58.2 62.8 58.1 62.8 58.1 62.8 58 62.9 58 62.9 58 63 58 63 58.1 63 58.2" class="a"/><path d="M64.6 57.5C64.6 57.6 64.5 57.6 64.4 57.6 64.4 57.6 64.4 57.5 64.4 57.5 64.4 57.4 64.5 57.4 64.5 57.4 64.6 57.4 64.6 57.5 64.6 57.5" class="a"/><path d="M62.6 46.7C62.6 46.7 62.5 46.8 62.5 46.8 62.4 46.7 62.4 46.7 62.4 46.6 62.4 46.6 62.5 46.5 62.5 46.6 62.6 46.6 62.6 46.7 62.6 46.7" class="a"/><path d="M61.4 45.1C61.4 45.1 61.3 45.1 61.3 45.1 61.3 45.1 61.2 45 61.2 45 61.3 44.9 61.3 44.9 61.4 44.9 61.4 45 61.4 45.1 61.4 45.1" class="a"/><path d="M62.7 56.4C62.7 56.4 62.6 56.5 62.6 56.4 62.5 56.4 62.5 56.3 62.5 56.3 62.5 56.2 62.6 56.2 62.7 56.2 62.7 56.3 62.7 56.4 62.7 56.4" class="a"/><path d="M61.8 55.2C61.8 55.2 61.7 55.2 61.7 55.2 61.7 55.2 61.6 55.1 61.6 55.1 61.7 55 61.7 55 61.8 55 61.8 55 61.8 55.1 61.8 55.2" class="a"/><path d="M61.4 55.7C61.4 55.8 61.3 55.8 61.2 55.8 61.2 55.8 61.2 55.7 61.2 55.6 61.2 55.6 61.3 55.6 61.3 55.6 61.4 55.6 61.4 55.7 61.4 55.7" class="a"/><path d="M60.3 57.3C60.3 57.3 60.2 57.3 60.2 57.3 60.1 57.3 60.1 57.2 60.1 57.2 60.1 57.1 60.2 57.1 60.3 57.1 60.3 57.1 60.3 57.2 60.3 57.3" class="a"/><path d="M60.3 54.5C60.2 54.6 60.2 54.6 60.1 54.6 60.1 54.6 60 54.5 60.1 54.4 60.1 54.4 60.2 54.4 60.2 54.4 60.3 54.4 60.3 54.5 60.3 54.5" class="a"/><path d="M60.1 51.1C60.1 51.2 60 51.2 60 51.2 60 51.2 59.9 51.1 60 51 60 51 60.1 51 60.1 51 60.1 51 60.2 51.1 60.1 51.1" class="a"/><path d="M59.6 48.7C59.6 48.8 59.5 48.8 59.5 48.8 59.4 48.8 59.4 48.7 59.4 48.7 59.4 48.6 59.5 48.6 59.6 48.6 59.6 48.6 59.6 48.7 59.6 48.7" class="a"/><path d="M59.4 47.6C59.4 47.6 59.3 47.7 59.3 47.6 59.3 47.6 59.2 47.5 59.3 47.5 59.3 47.4 59.4 47.4 59.4 47.4 59.4 47.5 59.5 47.6 59.4 47.6" class="a"/><path d="M59 45.1C59 45.1 58.9 45.2 58.8 45.1 58.8 45.1 58.8 45 58.8 45 58.8 45 58.9 44.9 58.9 44.9 59 45 59 45.1 59 45.1" class="a"/><path d="M59.6 45.5C59.6 45.5 59.5 45.5 59.4 45.5 59.4 45.5 59.4 45.4 59.4 45.4 59.4 45.3 59.5 45.3 59.5 45.3 59.6 45.3 59.6 45.4 59.6 45.5" class="a"/><path d="M59.5 46.2C59.5 46.3 59.4 46.3 59.4 46.3 59.3 46.2 59.3 46.2 59.3 46.1 59.3 46.1 59.4 46 59.5 46.1 59.5 46.1 59.5 46.2 59.5 46.2" class="a"/><path d="M58.7 44.4C58.7 44.5 58.5 44.5 58.5 44.5 58.4 44.5 58.4 44.4 58.4 44.3 58.4 44.2 58.6 44.2 58.6 44.2 58.7 44.2 58.7 44.4 58.7 44.4" class="a"/><path d="M59.3 44C59.3 44.1 59.2 44.1 59.1 44.1 59.1 44.1 59.1 44 59.1 43.9 59.1 43.8 59.2 43.8 59.3 43.8 59.3 43.9 59.3 44 59.3 44" class="a"/><path d="M58.3 43.9C58.3 44 58.2 44 58.1 44 58.1 44 58.1 43.9 58.1 43.8 58.1 43.8 58.2 43.8 58.2 43.8 58.3 43.8 58.3 43.9 58.3 43.9" class="a"/><path d="M58.5 43.5C58.5 43.6 58.4 43.6 58.4 43.6 58.3 43.6 58.3 43.5 58.3 43.4 58.3 43.4 58.4 43.4 58.5 43.4 58.5 43.4 58.5 43.5 58.5 43.5" class="a"/><path d="M58.9 43.5C58.8 43.5 58.8 43.5 58.7 43.5 58.7 43.5 58.6 43.4 58.7 43.4 58.7 43.3 58.8 43.3 58.8 43.3 58.8 43.3 58.9 43.4 58.9 43.5" class="a"/><path d="M59.9 43.9C59.9 44 59.8 44 59.8 44 59.7 44 59.7 43.9 59.7 43.8 59.7 43.8 59.8 43.8 59.9 43.8 59.9 43.8 59.9 43.9 59.9 43.9" class="a"/><path d="M61.5 47.8C61.5 47.9 61.3 47.9 61.2 47.9 61.1 47.9 61 47.7 61 47.6 61.1 47.5 61.3 47.4 61.4 47.4 61.5 47.5 61.5 47.7 61.5 47.8" class="a"/><path d="M61.4 49C61.3 49.1 61.1 49.1 61 49 61 49 60.9 48.7 61 48.7 61.1 48.6 61.3 48.6 61.4 48.7 61.5 48.7 61.4 49 61.4 49" class="a"/><path d="M62.1 49.2C62.1 49.3 61.9 49.3 61.9 49.2 61.8 49.2 61.8 49 61.9 48.9 62 48.9 62.1 48.9 62.2 48.9 62.2 49 62.2 49.2 62.1 49.2" class="a"/><path d="M62.4 48.4C62.4 48.5 62.2 48.5 62.1 48.4 62.1 48.3 62.1 48.1 62.2 48.1 62.3 48 62.4 48 62.5 48.1 62.6 48.2 62.5 48.4 62.4 48.4" class="a"/><path d="M62.4 47.3C62.4 47.4 62.3 47.5 62.2 47.5 62.1 47.4 62 47.3 62.1 47.2 62.1 47.1 62.2 47 62.3 47.1 62.4 47.1 62.5 47.3 62.4 47.3" class="a"/><path d="M63.4 48.5C63.3 48.5 63.2 48.5 63.1 48.4 63.1 48.4 63.1 48.2 63.2 48.1 63.3 48.1 63.4 48.1 63.5 48.2 63.5 48.3 63.4 48.5 63.4 48.5" class="a"/><path d="M63.7 50.4C63.7 50.5 63.5 50.4 63.4 50.3 63.4 50.3 63.5 50.1 63.6 50 63.7 50 63.8 50.1 63.9 50.2 63.9 50.3 63.8 50.4 63.7 50.4" class="a"/><path d="M64.1 52.6C64 52.7 63.9 52.8 63.8 52.7 63.7 52.7 63.6 52.6 63.6 52.5 63.6 52.3 63.8 52.3 63.9 52.3 64 52.3 64.1 52.5 64.1 52.6" class="a"/><path d="M64.3 54.4C64.2 54.5 64.1 54.6 64 54.5 63.9 54.5 63.8 54.3 63.8 54.2 63.9 54.1 64.1 54.1 64.1 54.1 64.2 54.1 64.3 54.3 64.3 54.4" class="a"/><path d="M64.7 56.6C64.7 56.7 64.5 56.8 64.4 56.7 64.3 56.7 64.2 56.6 64.2 56.5 64.3 56.4 64.5 56.3 64.5 56.3 64.6 56.3 64.7 56.6 64.7 56.6" class="a"/><path d="M65.2 58.1C65.1 58.2 65 58.2 64.9 58.1 64.9 58.1 64.8 57.9 64.9 57.8 65 57.8 65.1 57.8 65.2 57.8 65.3 57.9 65.2 58.1 65.2 58.1" class="a"/><path d="M65.9 60C65.8 60 65.7 59.9 65.7 59.8 65.6 59.8 65.7 59.6 65.8 59.6 65.9 59.6 66.1 59.7 66.1 59.8 66.1 59.9 65.9 60 65.9 60" class="a"/><path d="M65.8 56.6C65.7 56.7 65.6 56.6 65.6 56.5 65.5 56.4 65.6 56.2 65.7 56.2 65.8 56.2 66 56.3 66 56.4 66 56.5 65.8 56.6 65.8 56.6" class="a"/><path d="M67.2 61.4C67.2 61.5 67 61.5 67 61.4 66.9 61.4 66.9 61.2 66.9 61.1 67 61 67.2 61 67.2 61.1 67.3 61.1 67.3 61.3 67.2 61.4" class="a"/><path d="M68.9 62.9C68.8 62.9 68.7 62.8 68.6 62.7 68.6 62.6 68.7 62.5 68.8 62.4 68.9 62.4 69 62.5 69 62.6 69.1 62.7 68.9 62.8 68.9 62.9" class="a"/><path d="M70.4 64.3C70.4 64.4 70.2 64.3 70.1 64.2 70.1 64.1 70.2 63.9 70.3 63.9 70.4 63.9 70.5 63.9 70.6 64 70.6 64.1 70.5 64.3 70.4 64.3" class="a"/><path d="M72.2 65.1C72.2 65.1 72.1 65.2 72.1 65.2 72 65.2 72 65.1 72 65 72 64.9 72.1 64.9 72.1 64.9 72.2 64.9 72.2 65 72.2 65.1" class="a"/><path d="M70.2 66.4C70.2 66.5 70.1 66.5 70 66.4 70 66.4 70 66.3 70 66.2 70.1 66.2 70.2 66.2 70.2 66.2 70.3 66.3 70.3 66.4 70.2 66.4" class="a"/><path d="M67.5 66.9C67.5 66.9 67.4 67 67.4 67 67.3 67 67.2 66.9 67.2 66.8 67.2 66.7 67.3 66.7 67.4 66.7 67.5 66.7 67.5 66.8 67.5 66.9" class="a"/><path d="M66 65.6C66 65.6 65.8 65.7 65.8 65.7 65.7 65.7 65.6 65.5 65.6 65.4 65.6 65.4 65.8 65.3 65.9 65.3 66 65.3 66 65.5 66 65.6" class="a"/><path d="M63.8 65.9C63.8 65.9 63.6 65.8 63.6 65.8 63.6 65.7 63.6 65.5 63.7 65.5 63.8 65.5 63.9 65.5 64 65.6 64 65.7 63.9 65.8 63.8 65.9" class="a"/><path d="M62.9 64.2C62.9 64.3 62.7 64.4 62.6 64.4 62.6 64.3 62.4 64.2 62.5 64.1 62.5 64 62.6 63.9 62.7 64 62.8 64 62.9 64.2 62.9 64.2" class="a"/><path d="M61.7 62C61.6 62 61.5 62 61.4 62 61.4 61.9 61.4 61.7 61.4 61.7 61.5 61.6 61.7 61.6 61.7 61.7 61.8 61.8 61.7 62 61.7 62" class="a"/><path d="M61.1 60.1C61.1 60.2 60.9 60.2 60.8 60.2 60.7 60.1 60.6 59.9 60.7 59.8 60.8 59.8 61 59.7 61 59.8 61.1 59.8 61.1 60 61.1 60.1" class="a"/><path d="M61 57.8C60.9 57.9 60.8 57.8 60.8 57.7 60.8 57.6 60.8 57.4 60.9 57.4 61 57.4 61.2 57.5 61.2 57.6 61.2 57.7 61.1 57.8 61 57.8" class="a"/><path d="M60.6 55.4C60.5 55.4 60.3 55.3 60.3 55.2 60.3 55.2 60.3 55 60.4 55 60.5 55 60.7 55 60.7 55.1 60.7 55.2 60.6 55.4 60.6 55.4" class="a"/><path d="M59.9 55.2C59.8 55.3 59.7 55.2 59.6 55.1 59.6 55 59.7 54.8 59.8 54.8 59.9 54.8 60 54.9 60 54.9 60.1 55 59.9 55.2 59.9 55.2" class="a"/><path d="M60.7 52.2C60.6 52.3 60.4 52.4 60.3 52.3 60.3 52.3 60.2 52.1 60.2 52 60.3 51.9 60.5 51.8 60.6 51.9 60.7 51.9 60.7 52.2 60.7 52.2" class="a"/><path d="M60.2 50.5C60.2 50.6 60 50.6 59.9 50.5 59.9 50.4 59.9 50.2 60 50.2 60 50.1 60.2 50.2 60.3 50.2 60.3 50.3 60.3 50.5 60.2 50.5" class="a"/><path d="M60 48.5C59.9 48.5 59.8 48.4 59.8 48.3 59.7 48.2 59.8 48.1 59.9 48 60 48 60.2 48.1 60.2 48.2 60.2 48.3 60.1 48.5 60 48.5" class="a"/><path d="M59.6 47C59.6 47.1 59.4 47.1 59.3 47 59.2 47 59.2 46.8 59.3 46.7 59.3 46.6 59.5 46.6 59.6 46.7 59.7 46.7 59.7 47 59.6 47" class="a"/><path d="M60.4 46.4C60.3 46.4 60.2 46.3 60.1 46.2 60.1 46.2 60.1 46 60.2 46 60.3 45.9 60.5 46 60.5 46.1 60.6 46.2 60.5 46.3 60.4 46.4" class="a"/><path d="M59.4 44.7C59.3 44.7 59.2 44.6 59.2 44.5 59.2 44.5 59.3 44.4 59.4 44.3 59.5 44.3 59.6 44.4 59.6 44.5 59.6 44.6 59.5 44.7 59.4 44.7" class="a"/><path d="M61 50C61 50.1 60.8 50.1 60.7 50 60.7 50 60.6 49.8 60.7 49.8 60.7 49.7 60.9 49.7 61 49.7 61 49.8 61 50 61 50" class="a"/><path d="M63 49.6C62.9 49.7 62.8 49.8 62.7 49.7 62.6 49.7 62.6 49.5 62.6 49.5 62.6 49.4 62.8 49.3 62.9 49.4 62.9 49.4 63 49.6 63 49.6" class="a"/><path d="M63.6 51.4C63.5 51.5 63.3 51.5 63.2 51.4 63.2 51.4 63.1 51.2 63.2 51.1 63.2 51 63.4 51 63.5 51 63.6 51.1 63.6 51.3 63.6 51.4" class="a"/><path d="M63.2 53.5C63.1 53.5 63 53.5 62.9 53.4 62.9 53.4 62.9 53.2 62.9 53.2 63 53.1 63.2 53.1 63.2 53.2 63.3 53.3 63.2 53.4 63.2 53.5" class="a"/><path d="M61 51C61 51.1 60.9 51.2 60.8 51.2 60.7 51.2 60.6 51 60.7 50.9 60.7 50.8 60.8 50.8 60.9 50.8 61 50.8 61 51 61 51" class="a"/><path d="M61.9 50.6C61.8 50.7 61.7 50.5 61.7 50.4 61.7 50.4 61.8 50.2 61.9 50.2 62 50.2 62.1 50.3 62.1 50.4 62.1 50.5 62 50.6 61.9 50.6" class="a"/><path d="M60.2 49.5C60.1 49.5 59.9 49.4 59.9 49.3 59.9 49.3 59.9 49.1 60 49 60.1 49 60.3 49.1 60.3 49.2 60.3 49.3 60.2 49.4 60.2 49.5" class="a"/><path d="M64.4 55.4C64.4 55.5 64.2 55.6 64.1 55.6 64 55.6 63.9 55.4 63.9 55.3 63.9 55.2 64.1 55.1 64.1 55.1 64.3 55.1 64.4 55.3 64.4 55.4" class="a"/><path d="M63.5 54.7C63.5 54.8 63.3 54.9 63.2 54.8 63.1 54.8 63 54.7 63 54.5 63 54.4 63.2 54.3 63.3 54.4 63.4 54.4 63.5 54.6 63.5 54.7" class="a"/><path d="M62.9 52.4C62.8 52.5 62.6 52.4 62.6 52.3 62.6 52.2 62.6 52.1 62.7 52 62.8 52 62.9 52.1 63 52.1 63 52.2 62.9 52.4 62.9 52.4" class="a"/><path d="M61.6 52C61.5 52 61.3 52 61.3 51.9 61.3 51.8 61.3 51.6 61.4 51.6 61.5 51.6 61.7 51.7 61.7 51.7 61.7 51.8 61.6 52 61.6 52" class="a"/><path d="M62.4 51.4C62.4 51.5 62.2 51.5 62.1 51.5 62.1 51.4 62 51.2 62.1 51.2 62.1 51.1 62.3 51 62.4 51.1 62.5 51.2 62.5 51.4 62.4 51.4" class="a"/><path d="M62.8 50.7C62.8 50.7 62.6 50.7 62.6 50.6 62.5 50.6 62.5 50.4 62.6 50.4 62.7 50.3 62.8 50.4 62.9 50.4 62.9 50.5 62.9 50.7 62.8 50.7" class="a"/><path d="M64.2 51.7C64.2 51.7 64 51.6 64 51.5 63.9 51.5 64 51.3 64.1 51.2 64.2 51.2 64.4 51.3 64.4 51.4 64.4 51.5 64.3 51.7 64.2 51.7" class="a"/><path d="M64.6 53.6C64.5 53.7 64.3 53.7 64.3 53.6 64.2 53.6 64.2 53.4 64.2 53.3 64.3 53.2 64.5 53.2 64.6 53.3 64.6 53.3 64.6 53.6 64.6 53.6" class="a"/><path d="M65.2 56C65.1 56.1 64.9 56.1 64.8 56 64.8 55.9 64.7 55.7 64.8 55.7 64.9 55.6 65.1 55.6 65.2 55.7 65.3 55.7 65.2 56 65.2 56" class="a"/><path d="M65.5 57.5C65.4 57.5 65.3 57.5 65.2 57.4 65.2 57.3 65.2 57.2 65.3 57.1 65.4 57.1 65.5 57.1 65.6 57.2 65.6 57.3 65.5 57.4 65.5 57.5" class="a"/><path d="M65.5 67.3C65.4 67.3 65.2 67.3 65.2 67.2 65.2 67.1 65.2 67 65.3 66.9 65.4 66.9 65.5 66.9 65.6 67 65.6 67.1 65.5 67.2 65.5 67.3" class="a"/><path d="M63.4 56.3C63.3 56.4 63.2 56.4 63.1 56.3 63.1 56.2 63.1 56.1 63.2 56 63.3 56 63.4 56 63.5 56.1 63.5 56.2 63.4 56.3 63.4 56.3" class="a"/><path d="M65 54.8C65 54.8 64.8 54.9 64.7 54.9 64.7 54.9 64.5 54.8 64.5 54.7 64.6 54.6 64.7 54.5 64.8 54.5 64.9 54.5 65 54.7 65 54.8" class="a"/><path d="M62.6 54.1C62.5 54.1 62.3 54.2 62.2 54.1 62.2 54 62.1 53.8 62.2 53.7 62.3 53.7 62.5 53.7 62.5 53.7 62.6 53.8 62.6 54 62.6 54.1" class="a"/><path d="M60.7 54.1C60.7 54.2 60.5 54.2 60.4 54.1 60.4 54.1 60.3 53.9 60.4 53.8 60.4 53.8 60.6 53.7 60.7 53.8 60.8 53.8 60.8 54.1 60.7 54.1" class="a"/><path d="M60.6 53C60.6 53.1 60.5 53.2 60.4 53.2 60.3 53.2 60.2 53 60.2 52.9 60.3 52.8 60.4 52.8 60.5 52.8 60.6 52.8 60.6 53 60.6 53" class="a"/><path d="M60.7 56.4C60.7 56.5 60.5 56.5 60.5 56.5 60.4 56.4 60.3 56.3 60.4 56.2 60.4 56.1 60.6 56.1 60.6 56.1 60.7 56.2 60.7 56.3 60.7 56.4" class="a"/><path d="M61.3 58.9C61.2 59 61.1 58.9 61.1 58.8 61 58.7 61.1 58.6 61.2 58.5 61.3 58.5 61.4 58.6 61.5 58.7 61.5 58.8 61.3 58.9 61.3 58.9" class="a"/><path d="M61.6 60.8C61.5 60.9 61.4 60.9 61.3 60.9 61.2 60.8 61.1 60.7 61.2 60.6 61.2 60.5 61.4 60.4 61.5 60.5 61.6 60.5 61.6 60.7 61.6 60.8" class="a"/><path d="M62.7 62.6C62.6 62.6 62.5 62.5 62.4 62.4 62.4 62.3 62.5 62.2 62.6 62.1 62.7 62.1 62.9 62.2 62.9 62.3 62.9 62.4 62.7 62.6 62.7 62.6" class="a"/><path d="M63.4 65C63.4 65 63.2 64.9 63.2 64.8 63.2 64.7 63.3 64.5 63.4 64.5 63.5 64.5 63.6 64.6 63.6 64.7 63.7 64.8 63.5 65 63.4 65" class="a"/><path d="M64.9 66.2C64.9 66.3 64.7 66.2 64.7 66.1 64.6 66 64.7 65.8 64.8 65.8 64.9 65.8 65.1 65.9 65.1 66 65.1 66.1 65 66.2 64.9 66.2" class="a"/><path d="M69 65.8C68.9 65.9 68.7 65.9 68.6 65.9 68.6 65.8 68.5 65.6 68.6 65.5 68.6 65.4 68.8 65.4 68.9 65.5 69 65.5 69 65.8 69 65.8" class="a"/><path d="M67.5 65.1C67.5 65.1 67.3 65.2 67.2 65.2 67.1 65.2 67 65 67.1 64.9 67.1 64.8 67.3 64.7 67.3 64.8 67.4 64.8 67.5 65 67.5 65.1" class="a"/><path d="M69.2 64.2C69.2 64.3 69.1 64.3 69 64.3 69 64.3 68.9 64.2 68.9 64.1 68.9 64.1 69 64 69.1 64 69.2 64 69.2 64.2 69.2 64.2" class="a"/><path d="M68.2 64.1C68.2 64.2 68.1 64.3 68 64.3 68 64.3 67.9 64.1 67.9 64.1 67.9 64 68.1 63.9 68.1 63.9 68.2 64 68.2 64.1 68.2 64.1" class="a"/><path d="M72.2 66.4C72.1 66.5 72 66.5 72 66.5 71.9 66.4 71.9 66.3 71.9 66.2 72 66.2 72.1 66.2 72.1 66.2 72.2 66.2 72.2 66.4 72.2 66.4" class="a"/><path d="M67.4 63.4C67.3 63.5 67.1 63.4 67.1 63.4 67 63.3 67 63.1 67.1 63 67.2 63 67.4 63 67.5 63.1 67.5 63.2 67.4 63.4 67.4 63.4" class="a"/><path d="M65.6 64.2C65.5 64.3 65.4 64.3 65.3 64.2 65.3 64.1 65.3 64 65.3 63.9 65.4 63.8 65.6 63.9 65.6 63.9 65.7 64 65.6 64.2 65.6 64.2" class="a"/><path d="M66 62.5C65.9 62.5 65.7 62.5 65.7 62.4 65.7 62.4 65.7 62.2 65.7 62.1 65.8 62.1 66 62.1 66 62.2 66.1 62.3 66 62.4 66 62.5" class="a"/><path d="M64.1 63.3C64.1 63.4 63.9 63.4 63.9 63.3 63.8 63.3 63.8 63.1 63.9 63 63.9 63 64.1 63 64.1 63 64.2 63.1 64.2 63.3 64.1 63.3" class="a"/><path d="M65.1 61.1C65.1 61.2 65 61.3 64.9 61.3 64.8 61.2 64.7 61.1 64.7 61 64.8 60.9 64.9 60.9 65 60.9 65.1 60.9 65.1 61.1 65.1 61.1" class="a"/><path d="M63.3 61.1C63.2 61.2 63.1 61.3 63 61.2 62.9 61.2 62.8 61 62.9 60.9 62.9 60.8 63.1 60.8 63.2 60.8 63.3 60.8 63.3 61.1 63.3 61.1" class="a"/><path d="M62.2 59.8C62.2 59.8 62 59.9 61.9 59.9 61.9 59.8 61.8 59.7 61.8 59.6 61.9 59.5 62 59.5 62.1 59.5 62.2 59.5 62.2 59.7 62.2 59.8" class="a"/><path d="M64.8 59.3C64.8 59.4 64.6 59.5 64.5 59.5 64.5 59.5 64.3 59.3 64.4 59.2 64.4 59.1 64.6 59 64.6 59.1 64.7 59.1 64.8 59.3 64.8 59.3" class="a"/><path d="M63.9 58.1C63.8 58.1 63.6 58 63.6 57.9 63.6 57.9 63.7 57.7 63.8 57.7 63.9 57.7 64 57.8 64 57.8 64 57.9 63.9 58.1 63.9 58.1" class="a"/><path d="M64 60.5C64 60.5 63.8 60.4 63.8 60.3 63.8 60.2 63.9 60.1 64 60.1 64.1 60 64.2 60.2 64.2 60.2 64.2 60.3 64.1 60.5 64 60.5" class="a"/><path d="M63.3 59.3C63.3 59.4 63.1 59.5 63 59.5 62.9 59.5 62.8 59.3 62.9 59.2 62.9 59.1 63.1 59 63.1 59.1 63.2 59.1 63.3 59.3 63.3 59.3" class="a"/><path d="M62.3 58.2C62.2 58.3 62 58.4 61.9 58.3 61.9 58.2 61.8 58.1 61.9 58 62 57.9 62.1 57.9 62.2 57.9 62.3 58 62.3 58.2 62.3 58.2" class="a"/><path d="M63 57.3C63 57.3 62.8 57.4 62.7 57.4 62.6 57.3 62.5 57.2 62.6 57.1 62.6 57 62.8 56.9 62.9 57 63 57 63 57.2 63 57.3" class="a"/><path d="M61.7 56.6C61.6 56.7 61.5 56.7 61.4 56.6 61.3 56.6 61.3 56.4 61.4 56.3 61.5 56.2 61.7 56.3 61.7 56.3 61.8 56.4 61.7 56.6 61.7 56.6" class="a"/><path d="M62.7 55.4C62.7 55.5 62.5 55.6 62.4 55.6 62.4 55.5 62.3 55.4 62.3 55.3 62.3 55.2 62.5 55.1 62.5 55.2 62.6 55.2 62.7 55.4 62.7 55.4" class="a"/><path d="M61.6 54.7C61.5 54.7 61.3 54.7 61.3 54.6 61.3 54.5 61.3 54.3 61.4 54.3 61.5 54.3 61.7 54.3 61.7 54.4 61.7 54.5 61.6 54.7 61.6 54.7" class="a"/><path d="M62.1 52.9C62 53 61.9 52.9 61.9 52.9 61.9 52.8 61.9 52.7 61.9 52.7 62 52.6 62.1 52.7 62.2 52.7 62.2 52.8 62.1 52.9 62.1 52.9" class="a"/><path d="M66 58.8C66 58.9 65.9 58.9 65.8 58.9 65.7 58.8 65.6 58.7 65.7 58.6 65.7 58.5 65.9 58.5 66 58.5 66 58.5 66.1 58.7 66 58.8" class="a"/><path d="M61.4 63.3C61.3 63.3 61.1 63.3 61.1 63.3 61 63.2 61 63 61 63 61.1 62.9 61.3 62.9 61.3 63 61.4 63 61.4 63.2 61.4 63.3" class="a"/><path d="M60.4 58.6C60.3 58.7 60.1 58.7 60.1 58.6 60 58.6 60 58.4 60 58.3 60.1 58.2 60.3 58.2 60.3 58.3 60.4 58.4 60.4 58.6 60.4 58.6" class="a"/><path d="M60.3 44.5C60.3 44.5 60.2 44.6 60.1 44.6 60 44.6 59.9 44.4 60 44.3 60 44.3 60.1 44.2 60.2 44.2 60.3 44.2 60.3 44.4 60.3 44.5" class="a"/><path d="M70.5 65.9C70.5 66 70.4 66 70.4 66 70.4 66 70.3 65.9 70.3 65.8 70.4 65.8 70.4 65.8 70.5 65.8 70.5 65.8 70.5 65.9 70.5 65.9" class="a"/><path d="M72.4 65.8C72.4 65.8 72.3 65.8 72.3 65.8 72.2 65.8 72.2 65.7 72.2 65.7 72.2 65.6 72.3 65.6 72.4 65.6 72.4 65.6 72.4 65.7 72.4 65.8" class="a"/><path d="M70.5 67.2C70.5 67.2 70.4 67.3 70.4 67.2 70.4 67.2 70.3 67.1 70.3 67.1 70.4 67.1 70.4 67 70.5 67.1 70.5 67.1 70.5 67.2 70.5 67.2" class="a"/><path d="M71.5 65.1C71.5 65.1 71.4 65.2 71.4 65.2 71.3 65.2 71.3 65.1 71.3 65 71.3 64.9 71.4 64.9 71.4 64.9 71.5 64.9 71.6 65 71.5 65.1" class="a"/><path d="M71.5 66.4C71.5 66.5 71.3 66.5 71.3 66.5 71.2 66.4 71.2 66.3 71.2 66.2 71.3 66.2 71.4 66.2 71.4 66.2 71.5 66.2 71.5 66.4 71.5 66.4" class="a"/><path d="M57.2 38.4L58.1 38.7C58.8 39 59.2 40.1 58.9 41.4 58.7 42 58.4 42.4 58.1 42.8 58.2 43.2 58.1 43.6 58 43.8L57.9 44 56.8 43.5C56.7 43.5 56.6 43.5 56.5 43.5L53.4 42.6 57.2 38.4Z" class="b"/><path d="M47.4 31.1C47.7 31.2 47.9 31.1 48 31.1 48 31 48.1 30.9 48.1 30.8 47.9 30.9 47.6 31 47.3 30.9 47.3 30.9 47.2 30.8 47.1 30.8 47.2 30.8 47.2 30.9 47.2 31 47.2 31.1 47.3 31.1 47.4 31.1ZM47.4 32.5C47.3 32.5 46.7 32.5 46.7 32.4 46.9 32.3 47.1 32.4 47.3 32.4 47.5 32.4 47.6 32.3 47.7 32.1 47.4 32.3 46.8 32.2 46.6 32.2 46.6 32.2 46.7 32.5 46.8 32.6 46.9 32.7 47.2 32.7 47.4 32.6 47.4 32.5 47.5 32.5 47.5 32.5 47.5 32.5 47.4 32.5 47.4 32.5ZM46.8 30.6C47 30.5 47.2 30.5 47.4 30.4 47.7 30.4 48 30.5 48.1 30.5 48 30.4 47.7 30.2 47.5 30.3 47.3 30.3 46.9 30.5 46.8 30.6ZM50.7 32.7C50.2 33.4 49.5 33.6 48.7 33.5 48.4 33.4 48.3 33.3 48.2 33.2 48.5 33.1 48.9 32.8 49 32.6 48.9 32.7 48.7 32.8 48.6 32.8 48.2 33 47.6 33.4 47.2 33 46.7 32.7 46.2 31.8 46 31.7 45.9 31.6 45.9 31.5 45.9 31.5 45.8 31.3 45.8 31.1 45.9 30.8 45.9 30.8 46 30.9 46.1 30.9 46.3 31 46.4 30.9 46.4 30.9 46.6 31.3 45.9 31.6 46.4 31.8 46.5 31.9 46.8 31.9 47 31.8 46.9 31.6 46.6 31.9 46.4 31.7 46.3 31.4 46.8 31.1 46.6 30.7 46.4 30.3 46.2 30.1 45.8 30 45.8 30 45.7 30.1 45.7 30L45.7 29.9C46.5 29.6 47.2 29.2 47.9 28.8 47.7 29.8 49.3 30.5 48.5 31.5L48 31.9C48.6 32.4 49.7 32.3 50.4 32.2L50.7 32.7ZM46.3 30.5C46.4 30.5 46.5 30.7 46.3 30.7 46.1 30.7 45.9 30.6 45.8 30.3 45.8 30.2 45.8 30.2 45.8 30.2 46 30.2 46.3 30.4 46.3 30.5Z" class="a"/><path d="M53.9 65.3C54.3 65.4 54.5 65.2 54.7 64.9 54.8 64.5 54.8 63.9 54.7 63.7 54.5 63.6 54.2 63.5 54 63.6 53.7 63.6 53.5 63.7 53.3 64 53.3 64.2 53.4 64.6 53.5 64.9 53.6 65.1 53.8 65.3 53.9 65.3" class="a"/><path d="M54.3 61.3C54.1 60.6 53.9 58.7 53.6 57.3 53.2 55.6 53.1 55.1 52.5 54.2 52.3 53.9 52.1 53.3 52.1 53 52 52.5 51.8 51.7 51.6 51.2 51.2 51.3 50.7 51.4 50.2 51.4 49.6 51.4 49 51.4 48.5 51.3 48.7 51.6 49 52.5 49.1 52.9 49.2 53.4 49.3 53.9 49.6 54.4 49.9 54.8 50.1 54.8 50.3 55.1 50.6 55.6 50.8 55.9 51 56.5 51.1 56.8 51.5 57.6 52 58.8 52.4 59.6 52.8 60.6 53 61.2 53 61.2 53.1 61.6 53.1 61.8 53.2 62.2 53.2 63.2 53.2 63.4 53.4 63.2 53.7 63 54 63 54.4 63 54.6 63 54.8 63.1 54.7 62.9 54.4 61.8 54.3 61.3" class="a"/><path d="M43.6 48.6C43.6 48.9 43.5 49.4 43.4 49.9 43.3 50.7 43.2 51.4 43.2 51.8 43.1 52.3 43 52.4 42.9 52.6 42.8 52.7 42.8 52.8 42.8 52.8 42.7 53.2 42.7 53.8 42.8 54.3 42.8 54.5 42.7 54.9 42.7 55 42.6 55.2 41.9 58 41.5 59.4 41.1 60.8 40.8 62 40.4 62.6 40 63.2 39.7 63.7 39.2 64 39.5 64.8 40.1 65.4 41.2 65.5 41.5 64.8 41.6 63.7 42 62.9 42.3 62 43.5 59.7 44.3 58.4 45.1 57.1 45.1 55.2 45.1 54.5 45.2 53.7 45.5 53.5 45.8 53 46.1 52.5 46.7 51.2 46.9 50.8 46.6 50.6 46.2 50.4 45.7 50 44.7 49.5 43.9 48.8 43.6 48.6" class="a"/><path d="M37.5 64.5C37.7 64.7 38.4 64.9 38.6 65 38.7 65 38.8 64.8 38.8 64.6 38.7 64.5 38.7 64.3 38.6 64.2 38.2 64.3 37.8 64.3 37.4 64.3 37.3 64.3 37.3 64.3 37.2 64.2 37.2 64.3 37.3 64.4 37.5 64.5" class="a"/><path d="M38.4 40.9L38.1 41.1 37.6 41.4 36.3 42.5C36.3 42.6 36.3 42.6 36.3 42.6 36.3 42.7 36.4 42.7 36.4 42.7 36.4 42.7 36.4 42.7 36.4 42.7L38.4 41C38.4 40.9 38.4 40.9 38.4 40.9" class="a"/><path d="M46.2 34.2C46.2 34.2 46.1 34.2 46.1 34.2L40.4 39C40.4 39 40.4 39 40.4 39L40.1 39.3C40 39.4 39.5 39.8 39.5 39.8 39.5 39.9 39.4 40 39.4 40.1L46.2 34.3C46.2 34.3 46.2 34.3 46.2 34.2" class="a"/><path d="M40.1 39.2C40 39.2 39.5 39.3 39.2 39.2 39 39.2 38.7 39.3 38.2 39.6 38 39.8 37.7 40 37.5 40.3 37.4 40.5 37.4 40.6 37.4 40.7 37.4 40.9 37.3 41.1 37.4 41.4 37.5 41.4 37.9 41.1 37.9 41.1 37.9 41.1 38 40.8 37.9 40.6 38 40.6 38.2 40.3 38.3 40.2 38.4 40 38.5 40 38.6 40.1 38.6 40.2 38.6 40.3 38.6 40.4 38.7 40.6 38.7 40.5 38.6 40.8 38.5 40.9 38.5 41.1 38.5 41.2 38.6 41.3 38.6 41.3 38.7 41.3 38.9 41.3 38.9 41.1 39 40.9 39.1 40.8 39.2 40.5 39.2 40.2 39.2 40.2 39.3 40 39.4 39.8 39.5 39.7 39.8 39.5 40.1 39.2" class="a"/><path d="M40.1 40.3C40.1 40.3 40.1 40.3 40.1 40.3 40.3 40.2 40.3 39.6 40.3 39.6L39.9 40 39.4 40.5 39.3 40.6C39.5 40.7 39.9 40.5 40.1 40.3" class="a"/><path d="M38 42.1C38.1 42.2 38.3 42.3 38.4 42.2 38.4 42.1 38.3 41.8 38 41.6L37.8 41.9C37.8 41.9 37.9 42 38 42.1" class="a"/><path d="M38.8 41.7C38.8 41.8 38.6 41.8 38.5 41.7 38.4 41.7 38.4 41.7 38.3 41.7 38.3 41.7 38.2 41.6 38.1 41.5L38.3 41.4C38.3 41.4 38.4 41.4 38.5 41.4 38.5 41.5 38.7 41.5 38.7 41.5 38.8 41.6 38.8 41.7 38.8 41.7" class="a"/><path d="M56.8 43.3C57 43.3 57.3 43.2 57.5 43.1 58 42.7 58.4 42.2 58.7 41.5 59 40.5 58.8 39.5 58.3 39.1L57.8 38.9C58.2 39.4 58.5 40.3 58.2 41.3 57.8 42.3 56.9 43 56.3 43.2 56.3 43.2 56.6 43.4 56.8 43.3" class="a"/><path d="M57.8 43.7L57.4 43.5C57.4 43.5 57.4 43.4 57.5 43.3 57.7 43.2 57.8 43.1 58 43 58 43.4 57.8 43.7 57.8 43.7" class="a"/><path d="M43.6 29.8C43.5 29.8 43.5 29.8 43.5 29.8 43.4 29.7 43.4 29.6 43.4 29.5 43.4 29.5 43.5 29.7 43.7 29.7 44.2 29.7 45 29.3 45.3 28.7 45 29 44.8 29.1 44.5 29.3 44.6 29.1 44.8 28.8 45 28.4 45.2 28 45.5 27.4 45.8 26.8 46.7 25.6 48 24.6 50 25.4 50 25.4 50 25.4 50 25.4 50 25.4 50.1 25.8 49.9 25.9 49.9 25.7 49.5 25.6 49.2 25.5 49.2 25.5 49.1 25.5 49 25.5 49 25.5 48.9 25.5 48.9 25.5 49.1 25.5 49.6 25.6 49.8 25.9 49.1 25.6 47.6 25.8 46.8 26.4 46.7 26.4 46.8 26.5 46.8 26.4 47.2 26.2 47.8 26 48.2 26 48.9 25.9 49.8 26 49.9 26.2 49.7 26.4 49.4 26.9 49.2 27 48.8 27.2 48.2 27.2 47.7 27.4 47 27.7 46.7 28.1 46.5 28.3 46.5 28.3 46.5 28.3 46.6 28.3 46.6 28.3 46.6 28.3 46.6 28.3 46.8 28.2 47 28 47.2 27.9 47.9 27.6 48.2 27.6 48.7 27.4 48.4 27.5 48.5 27.8 48 28 48.2 28 48.6 27.8 48.6 27.8 48.6 27.8 47.8 28.6 47.2 28.9 46.9 29.1 46.5 29.4 46 29.6 45.5 29.8 45 29.9 44.6 29.9 44.3 30 44 30 43.8 29.9M45.3 30.2C45.3 30.1 45.3 30.1 45.4 30 45.2 30.1 45.1 30.1 44.9 30.1 44.8 30.2 44.6 30.3 44.4 30.4 44.3 30.4 44.1 30.5 44 30.5 44.1 30.6 44.1 30.7 44.2 30.9 44.3 31.1 44.8 31.6 45.3 31.6 45.3 31.7 45.3 31.7 45.4 31.8 45.5 31.8 45.5 31.9 45.6 31.9 45.7 31.9 45.8 32 45.9 32 45.4 31.2 45.8 31.1 45.7 30.8 45.6 30.9 45.1 31.2 45.3 31 45.5 30.9 45.6 30.7 45.6 30.5 45.6 30.6 45.3 30.8 45.2 30.8 45.5 30.5 45.5 30.4 45.5 30.2 45.4 30.3 45.3 30.5 45.1 30.6 44.8 30.7 44.5 30.9 44.2 30.8 44.4 30.8 45.1 30.6 45.3 30.2M49.2 32.1C48.8 32.1 48.4 32.1 48.3 31.9 49.1 31.8 49.7 31.1 49.9 30.4 50.1 29.2 49.6 27.7 49.5 27.4 49.6 27.8 49.8 28.8 49.8 29.5 49.8 30.3 49.7 30.7 49.5 31 49.3 31.3 48.9 31.5 48.6 31.6 48.6 31.6 48.6 31.6 48.6 31.6 48.8 31.3 48.9 31 48.9 30.6 48.9 30.6 48.9 30.6 48.9 30.6 48.8 30.3 48.6 30.1 48.5 29.9 48.4 29.7 48.3 29.5 48.2 29.3 48.2 29.1 48.2 28.9 48.2 28.7 48.2 28.6 48.3 28.4 48.3 28.3 48.4 28.1 48.6 27.9 48.7 27.7 48.9 27.6 49 27.4 49.1 27.4 49.3 27.2 49.4 27.1 49.5 27.1 49.5 27.1 49.7 27.5 49.8 27.9 49.8 27.7 49.7 27.5 49.7 27.3 49.6 27.2 49.6 27 49.7 26.8 49.7 26.5 50 26.3 50.1 26.1 50.2 26.1 50.6 26.4 50.9 27 50.9 27 51 27.1 51 27.1 51 27.1 51.1 27.1 51 27.1 50.8 26.4 50.6 26.1 50.2 26 50.4 25.8 50.8 26 51.1 26.1 51.2 26.2 51.3 26.3 51.4 26.4 52.4 27.7 52.6 29.6 52 30.9 51.9 31.1 51.7 31.3 51.5 31.5 51.7 30.9 52 29.8 51.7 28.8 51.7 30.4 51.5 31.3 51 31.8 51 31.9 50.8 31.9 50.7 32 50.6 32.1 50.3 32.1 50.1 32.1 50.2 32.1 50.9 31.5 50.9 31.2 50.7 31.5 50.3 31.9 49.9 32 49.9 32 49.8 32 49.8 32" class="d"/><path d="M35.2 46.4C34.5 46.4 33.9 45.7 33.9 45 33.9 44.6 34 44.3 34.3 44L34.3 44 35.8 42.7C36 42.6 36.1 42.7 36.2 42.8 36.3 43 36.4 43.1 36.2 43.2L34.7 44.5C34.6 44.6 34.5 44.8 34.5 45 34.5 45.4 34.8 45.7 35.2 45.7 35.5 45.7 35.7 45.6 35.8 45.5 35.9 45.3 36.1 45.3 36.3 45.4 36.4 45.5 36.4 45.7 36.3 45.8 36.1 46.2 35.7 46.4 35.2 46.4" class="d"/><path d="M41.1 66.3C41.1 66.1 41.2 65.9 41.2 65.8 41.2 65.8 40.6 65.6 40.6 65.6 40.5 65.5 40.3 65.5 40 65.3 39.9 65.3 39.8 65.2 39.8 65.1 39.8 65.1 39.4 64.7 39.3 64.5 39.2 64.4 39.1 64.2 39 64.1 39 64.1 38.9 64.1 38.8 64.2 38.9 64.4 39 64.5 39 64.8 39 65.1 38.8 65.4 38.3 65.2 37.6 65 37.2 64.5 37 64.2 36.5 64 36 63.7 35.8 63.7 35.4 63.7 35.2 63.9 35.2 63.9 35.4 64.1 35.8 64.5 36.2 64.8 36.6 65.1 37.1 65.5 37.5 65.6 37.8 65.7 38.2 65.8 38.6 65.8 38.9 65.9 39.2 66.1 39.4 66.1 39.4 66.2 39.3 66.4 39.2 66.6 39.2 66.6 39.3 66.7 39.3 66.7 39.4 66.7 39.9 67 40.5 67.1 40.8 66.9 40.9 66.6 41.1 66.3" class="d"/><path d="M55.3 66.1C55.4 65.3 55.3 64.4 55.1 63.8 55 63.7 54.9 63.3 54.9 63.3 54.3 62.9 53.7 63.1 53.2 63.5 53.2 63.5 53.3 63.8 53.3 63.8 53.3 63.8 53.5 63.5 54 63.4 54.4 63.4 54.7 63.5 54.8 63.6 54.8 63.6 54.8 63.6 54.8 63.6 54.8 63.6 54.9 64.3 54.9 64.8 54.8 65.3 54.2 65.7 53.8 65.5 53.4 65.3 53.3 64.8 53.3 64.3 53.3 64.4 53.3 64.5 53.2 64.7 53.2 65.1 53.2 65.6 53.2 65.7 53.1 66.6 53.2 67.5 54 67.4 54.8 67.3 55.2 66.9 55.3 66.1" class="d"/><path d="M45.6 33.9C45.2 34.2 45 34.5 44.9 35L46.5 33.6C46.5 33.6 46 33.7 45.6 33.9" class="d"/><path d="M50.6 38.4C50.1 38.1 48.9 37.7 47.9 37.6 46.9 37.6 45.9 37.6 45.7 37.8 45.2 38.8 44.3 40.1 43.1 41 41.6 42.2 40.8 43.2 39.8 44.3 39 45.2 38.4 46 38.1 46.4 38.1 46.5 38 46.5 38 46.5 38.4 46.6 39 46.7 39.6 46.9 40.3 47.1 40.8 47.4 41 47.5 41 47.5 41 47.5 41 47.5L40.5 46.8C40.5 46.8 40.4 46.8 40.5 46.7L40.8 46.7C41 46.7 41.3 46.7 41.7 46.9 42.5 47.1 43.1 47.8 45.1 49.4 45.6 49.8 46.2 50.1 46.6 50.3 47.7 50.9 48.8 51.2 49.9 51.1 51.5 51.1 53.6 50.4 54 50.2 54.1 50.2 54.1 50.2 54.1 50.2 54.2 50.1 54.3 50.1 54.3 50 54.4 49.9 54.3 49.7 54.3 49.6 54.3 49.2 54 46.9 53.8 45.5 53.5 44.2 53.2 42.6 53.2 42.6L50.6 38.4Z" class="d"/><path d="M41 40.5C41.3 40.3 41.4 39.9 41.4 39.7 41.4 39.3 41.2 39.1 41.1 39 41.1 39 41 39 41 39L40.6 39.4C40.5 39.8 40.5 40.2 40.2 40.4L40.2 40.4C40.3 40.4 40.5 40.5 40.8 40.5 40.9 40.5 40.9 40.5 41 40.5" class="d"/><path d="M41.1 47.6C41.1 47.7 41 47.7 41 47.7 40.5 47.4 39.4 47 38.8 46.9 38.6 46.9 38.5 46.9 38.4 46.9 38.3 46.9 38.3 46.9 38.3 46.9 38.3 47 38.3 47 38.3 47 39.7 48 43.2 49.2 43.2 49.2 43.2 49.1 43.2 49 43.2 48.9 43.2 48.6 43.3 48.2 43.3 48.2 42.8 47.7 42.2 47.2 41.4 47 41.4 47 41.2 47.6 41.1 47.6" class="d"/><path d="M50.2 25.5C50.2 25.5 50.1 25.8 50.2 25.8 50.2 25.8 50.3 25.8 50.4 25.8 50.6 25.8 50.8 25.9 50.8 25.9 50.8 25.9 50.6 25.7 50.4 25.6 50.3 25.6 50.3 25.5 50.2 25.5" class="d"/><path d="M47.4 37.2C47.6 37.2 47.8 37.2 48 37.2 48.3 37.2 48.6 37.3 48.8 37.3L49 37.4C49.4 37.5 49.8 37.6 50.1 37.7L50.3 37.8C50.5 37.9 50.6 37.9 50.8 38 50.9 37.7 51.1 37.4 51.3 37.2L51.5 37C51.8 36.7 52.2 36.6 52.5 36.7 52.7 36.8 53 36.9 53.1 36.9 53.2 37.1 53.4 37.3 53.5 37.5L53.5 37.5C53.6 37.5 53.7 37.7 53.8 37.8 54.3 38.6 54.2 38.5 54.6 39.2 54.7 39.4 54.9 39.5 55 39.5 55.2 39.3 55.6 39.1 55.8 39.2 55.9 39.2 55.9 39.2 55.9 39.2 55.7 39.3 55.4 39.4 55.3 39.6 55.7 39.5 56.1 39.3 56.5 39.5 56.6 39.5 56.6 39.6 56.5 39.6 56.2 39.5 55.8 39.6 55.5 39.7 55.4 39.8 55 40 54.8 40.2 54.6 40.4 54.4 40.6 54.1 40.8 54.3 40.8 54.6 40.9 54.7 41.4 54.8 41.5 54.8 41.8 54.8 42 54.7 42.2 54.6 42.3 54.6 42.3 54.7 42.3 54.7 42.3 54.7 42.3 55.1 42.3 56.1 42.3 56.8 41.8 57.2 41.6 57.4 41.3 57.6 41.1 57.6 41 57.6 41 57.7 40.9 57.7 40.8 57.7 40.6 57.7 40.5 57.7 40.5 57.6 40.3 57.6 40.3 57.6 40.3 57.3 39.4 57.3 39.4 57.3 39.3 57.3 39.2 57.2 39.1 57 38.7 56.5 37.9 56.3 37.6 55.8 36.8 55.2 36 54.8 35.2 54.5 34.8 54.3 34.4 54.1 34.2 53.8 33.9 53.6 33.8 53.4 33.7 53.2 33.6 53 33.6 53 33.6 53 33.6 52.9 33.6 52.8 33.6L52.7 33.6C52.5 33.5 52.1 33.4 51.7 33.2L51.6 33.2C51.3 33.1 50.9 32.9 50.9 32.9 50.9 32.9 50.7 33.1 50.3 33.4L49.9 33.6C49.5 33.8 48.9 33.9 48.4 33.7L48.3 33.6C48.2 33.5 48.1 33.5 48 33.4 47.8 33.4 47.7 33.4 47.6 33.4L47.5 33.4C47.5 33.4 47.2 33.7 47.2 33.7L44.5 36C44.3 36.5 44.1 36.9 43.9 37.2 43.4 37.9 43.3 38.3 43.4 38.5 43.8 38.5 44.1 38.5 44.3 38.6 44.4 38.7 44.3 38.7 44.3 38.7 44 38.7 43.7 38.7 43.5 38.7 43.5 38.7 43.5 38.7 43.6 38.8 43.8 38.9 43.9 39 44 39.1 44 39.2 44 39.3 43.9 39.2 43.8 39.1 43.5 38.8 43 38.8 42.4 38.7 42 38.9 41.6 39 41.5 39 41.4 39 41.3 39 41.7 39.3 41.6 40.3 41.2 40.6 41.5 40.7 42.1 40.9 42.5 40.9 42.7 41 42.9 40.9 43 40.8 43.4 40.6 43.7 40.3 44.1 39.9 44.9 39 45.5 38 45.8 37.3 46 36.6 46 35.9 46 35.5 46 35.4 46 35.3 46 35.2 46 35.2 46.1 35.4 46.1 35.6 46.1 35.7 46.2 36.6 46 37.1 46 37.2 46 37.3 45.9 37.3 46 37.3 46.1 37.3 46.2 37.2L46.4 37.2C46.6 37.2 46.9 37.2 47.2 37.2L47.4 37.2Z" class="d"/><path d="M54.5 41.5C54.5 41 54.1 40.9 53.9 40.9 53.7 41 53.6 41 53.5 41.1 53.6 41.2 53.7 41.2 53.8 41.4 53.9 41.5 53.8 41.8 53.8 41.9 53.8 42 53.7 42.2 53.6 42.3 53.7 42.3 53.7 42.3 53.7 42.3 53.9 42.3 54.1 42.3 54.4 42.3 54.4 42.3 54.6 42.1 54.6 41.7 54.6 41.6 54.5 41.5 54.5 41.5" class="d"/><path d="M53 40.8C53.1 40.5 53.3 40.2 53.4 39.8 53.6 39.1 53.7 38.4 53.6 37.9 53.4 37.6 53.2 37.4 53 37.2 52.8 37 52.7 37 52.6 36.9 52.8 37.1 52.9 37.3 53 37.7 53.1 38.3 53.1 39 52.8 39.6 52.8 39.9 52.7 40.2 52.5 40.4" class="a"/><path d="M53.2 42.6C53.2 42.6 52.9 42.7 52.6 42.8 52.3 42.9 52.1 42.9 51.9 42.9 51.7 42.9 51.6 42.9 51.4 42.9 51.3 42.9 51.2 42.8 51.2 42.7 51 42.7 50.9 42.7 50.8 42.6 50.7 42.6 50.6 42.5 50.6 42.4 50.4 42.3 50.4 42.3 50.3 42.2 50.2 42.1 50.2 41.9 50.2 41.8 50.2 41.8 50.2 41.6 50.2 41.5 50.1 41.3 50.2 41.3 50.2 41.2 50.3 41.2 50.3 41.2 50.4 41.2 50.1 40.7 50.1 39.8 50.4 38.8 50.5 38.7 50.5 38.5 50.6 38.3L53.2 42.6Z" class="b"/><path d="M52.4 40.3C52.5 40.1 52.6 39.9 52.6 39.6 53 38.5 53 37.2 52.3 37 51.8 36.8 51 37.5 50.6 38.7 50.2 39.9 50.3 41.1 50.9 41.3 51.2 41.4 51.8 41.1 51.8 41L52.4 40.3Z" class="a"/><path d="M51.8 41C51.9 40.9 51.8 40.8 51.6 40.7 51.4 40.5 51.3 40.4 51.2 40.2 51.2 40 51.3 39.7 51.5 39.9 51.7 40 51.8 40.1 52 40.2 52.1 40.2 52.3 40.3 52.4 40.3L52.5 40.4C52.6 40.4 52.6 40.5 52.7 40.6 52.8 40.7 52.9 40.8 53 40.8L51.8 41Z" class="b"/><path d="M51.5 42.7C51.5 42.7 51.4 42.7 51.4 42.7 51.4 42.7 51.2 42.7 51.2 42.6 50.9 42.6 50.8 42.4 50.8 42.4 50.9 42.5 51.1 42.4 51.1 42.4 51.1 42.4 51 42.4 51 42.4 50.9 42.4 50.7 42.4 50.6 42.3 50.5 42.2 50.4 42 50.4 42.1 50.7 42.2 51 42.1 51 42.1 51.1 42.1 51.1 42.1 51 42.1 51 42.1 50.5 42 50.4 41.9 50.3 41.9 50.2 41.4 50.2 41.4 50.3 41.3 50.3 41.3 50.4 41.3 50.5 41.4 50.6 41.5 50.7 41.6 50.7 41.6 50.9 41.6 51.4 41.5 51.9 41.3 52 41 52 40.9 52 40.9 52 40.9 52 40.9 52 40.9 52 40.8 51.5 40.5 51.3 40.3 51.2 40.1 51.3 40 51.4 39.9 51.5 40 51.6 40.1 51.7 40.2 51.8 40.2 51.9 40.2 52 40.3 52.1 40.3 52.2 40.4 52.5 40.5 52.6 40.5 52.9 40.9 53 41.1 53.3 41.2 53.4 41.3 53.8 41.5 53.6 42.1 53.3 42.4 53.1 42.5 52.7 42.6 52.6 42.7 52.1 42.9 51.8 42.8 51.7 42.8 51.6 42.8 51.4 42.8 51.3 42.7 51.3 42.7 51.3 42.7 51.3 42.7L51.3 42.7C51.3 42.7 51.5 42.7 51.5 42.7 51.5 42.7 51.5 42.7 51.5 42.7" class="a"/><path d="M50.3 33.4C49.4 34.6 49 36.7 49 37.4L48.8 37.3C48.8 36.6 49.2 34.8 49.9 33.6L50.3 33.4Z" class="b"/><path d="M48.6 34.2C48.7 34.1 48.8 34.2 48.8 34.2 48.9 34.3 48.9 34.5 48.8 34.5 48.7 34.6 48.6 34.6 48.5 34.5 48.5 34.4 48.5 34.3 48.6 34.2" class="b"/><path d="M48.3 35C48.4 35 48.5 35 48.6 35.1 48.6 35.2 48.6 35.3 48.5 35.4 48.4 35.4 48.3 35.4 48.2 35.3 48.2 35.2 48.2 35.1 48.3 35" class="b"/><path d="M48.1 36C48.2 35.9 48.3 36 48.4 36 48.4 36.1 48.4 36.3 48.3 36.3 48.2 36.4 48.1 36.4 48 36.3 48 36.2 48 36.1 48.1 36" class="b"/><path d="M47.2 33.7C46.5 35 46.2 36.6 46.2 37.3L46.4 37.2C46.3 36.6 46.7 34.6 47.5 33.4L47.2 33.7Z" class="b"/><path d="M48.5 33.7C47.7 34.8 47.4 36.5 47.4 37.2L47.2 37.2C47.2 36.4 47.5 34.8 48.3 33.6L48.5 33.7Z" class="b"/><path d="M50.1 37.7C50.1 37 50.6 34.5 51.6 33.2L51.7 33.2C50.6 34.7 50.3 37.2 50.3 37.8L50.1 37.7Z" class="b"/><path d="M51.3 37.2C51.5 36.1 52 34.5 52.7 33.5L52.8 33.6C52.1 34.6 51.7 35.9 51.5 37L51.3 37.2Z" class="b"/><path d="M40.5 46.7C40.8 46.1 41.6 45.2 42.7 44.2 44.4 42.6 44.7 42.2 45.4 41 45.7 40.4 45.9 39.8 46 39.4 46.1 39.2 46.1 39.4 46.1 39.5 46.1 39.6 46 39.7 45.9 40.3 45.6 41 45.3 41.8 44.5 42.7 43.6 43.8 41.4 45.5 40.8 46.7L40.5 46.7Z" class="b"/><path d="M49.8 32C51 31.4 51.3 29.7 51.1 29 51.1 28.8 51.1 28.7 51.1 28.6 51 27.5 50.4 26.7 50 26.5 50 26.5 50.5 27 50.8 27.8 51 28.2 51 29 51 29.5 51 30.2 50.8 30.7 50.5 31.2 50.2 31.6 49.7 32 49.2 32.1L49.8 32Z" class="b"/><path d="M46.2 27.7C45.7 28.2 45.6 28.3 45.5 28.5 45.9 28.1 46.3 27.8 46.7 27.5 47.2 27.2 48.2 26.9 48.2 26.9 47.4 27 46.7 27.2 46.2 27.7" class="b"/><path d="M43.8 29.9C44.7 30 46.1 29 46.3 28.7 46.1 28.9 45.3 29.4 44.5 29.7 44.2 29.8 43.8 29.9 43.6 29.8L43.8 29.9Z" class="b"/><path d="M43 14.8C42.8 14.8 42.5 14.9 42.9 14.9 43.2 15 43.3 15.1 43.4 15.3 43.6 15.5 43.7 15.7 43.8 16 43.9 16.3 43.9 16.7 43.9 16.9 43.9 17 44 17 44 16.9 44.1 16.6 44.1 15.9 43.8 15.4 43.6 15 43.3 14.9 43 14.8" class="a"/><path d="M51.7 17.3C51.5 17.2 51.4 17.2 51.5 17.4 51.6 17.5 51.7 17.6 51.8 17.7 51.9 18 51.9 18.3 51.9 18.5 51.9 18.9 51.8 19.2 51.7 19.4 51.7 19.5 51.7 19.5 51.8 19.4 51.9 19.1 52.2 18.6 52.1 18 52 17.6 51.9 17.5 51.7 17.3" class="a"/><path d="M61.2 26C61.3 25.9 61.2 25.7 60.9 25.5 60.6 25.4 60.2 25.3 59.8 25.4 59.1 25.5 58.7 25.9 58.5 26.1 58.4 26.2 58.4 26.3 58.5 26.2 58.7 26.1 59 25.9 59.4 25.7 59.6 25.6 60 25.6 60.3 25.6 60.4 25.6 60.6 25.7 60.8 25.8 61 25.9 61.2 26 61.2 26" class="a"/><path d="M62.7 31.5C62.9 31.5 63 31.5 63.2 31.6 63.4 31.7 63.6 31.9 63.7 31.9 63.7 31.8 63.6 31.5 63.3 31.4 63 31.2 62.6 31.2 62.2 31.2 61.5 31.4 61.1 31.7 60.9 32 60.8 32.1 60.8 32.1 60.9 32.1 61.1 31.9 61.4 31.7 61.8 31.6 62.1 31.5 62.4 31.4 62.7 31.5" class="a"/><path d="M56.3 20.9C55.6 21 55.1 21.3 54.9 21.5 54.8 21.6 54.8 21.6 54.9 21.6 55 21.5 55.4 21.3 55.7 21.2 56.2 21.1 56.7 21.1 57.1 21.5 57.2 21.6 57.4 21.9 57.4 21.8 57.5 21.8 57.5 21.6 57.3 21.2 57.1 21 56.8 20.9 56.3 20.9" class="a"/><path d="M31.4 24.2C31.3 24.2 31.3 24.2 31.2 24.2L29.1 27.9C29.1 27.9 29.1 28 29.1 28 29.2 28 29.2 28 29.2 28 29.2 28 29.3 28 29.3 28L31.4 24.3C31.4 24.3 31.4 24.2 31.4 24.2" class="a"/><path d="M32.5 22.2C32.5 22.2 32.4 22.2 32.4 22.3L31.6 23.6C31.6 23.6 31.6 23.7 31.7 23.7 31.7 23.7 31.7 23.7 31.7 23.7 31.7 23.7 31.8 23.7 31.8 23.7L32.6 22.4C32.6 22.3 32.6 22.3 32.5 22.2" class="a"/><path d="M36 16.5C35.9 16.4 35.9 16.5 35.8 16.5L32.6 21.9C32.6 22 32.6 22 32.7 22.1 32.7 22.1 32.7 22.1 32.7 22.1 32.7 22.1 32.8 22.1 32.8 22L36 16.6C36 16.6 36 16.5 36 16.5" class="a"/><path d="M36.2 16.1C36.2 16.1 36.3 16.1 36.3 16.1 36.3 16.1 36.3 16.1 36.4 16L37 15C37 15 37 14.9 36.9 14.9 36.9 14.8 36.8 14.9 36.8 14.9L36.2 15.9C36.1 16 36.2 16 36.2 16.1" class="a"/><path d="M37.2 14.4C37.2 14.4 37.2 14.4 37.3 14.4 37.3 14.4 37.3 14.4 37.3 14.4L41.7 7C41.7 7 41.7 6.9 41.7 6.9 41.6 6.9 41.6 6.9 41.5 6.9L37.2 14.3C37.1 14.3 37.2 14.4 37.2 14.4" class="a"/><path d="M42.2 6.1C42.2 6.1 42.2 6.2 42.2 6.2 42.3 6.2 42.3 6.1 42.3 6.1L43 5C43 4.9 43 4.9 42.9 4.8 42.9 4.8 42.8 4.8 42.8 4.9L42.1 6C42.1 6 42.1 6.1 42.2 6.1" class="a"/><path d="M41.3 16.4C41.3 16.4 41.4 16.4 41.4 16.4 41.4 16.4 41.4 16.4 41.5 16.4L45.8 9.1C45.8 9 45.8 9 45.8 8.9 45.7 8.9 45.6 8.9 45.6 9L41.3 16.3C41.3 16.3 41.3 16.4 41.3 16.4" class="a"/><path d="M46 8.5C46 8.5 46.1 8.5 46.1 8.5 46.1 8.5 46.1 8.5 46.2 8.5L48.1 5.2C48.1 5.2 48.1 5.1 48.1 5.1 48 5 47.9 5.1 47.9 5.1L46 8.4C46 8.4 46 8.5 46 8.5" class="a"/><path d="M48.6 4.1C48.6 4.1 48.6 4.1 48.6 4.1 48.7 4.1 48.7 4.1 48.7 4.1L50.7 0.8C50.7 0.8 50.7 0.7 50.6 0.7 50.6 0.7 50.5 0.7 50.5 0.7L48.6 4C48.5 4 48.5 4.1 48.6 4.1" class="a"/><path d="M49.7 8.1C49.6 8.1 49.6 8.1 49.5 8.1L44.3 16.9C44.3 16.9 44.3 17 44.4 17 44.4 17.1 44.4 17.1 44.4 17.1 44.4 17.1 44.5 17 44.5 17L49.7 8.2C49.8 8.2 49.7 8.1 49.7 8.1" class="a"/><path d="M49.9 7.7C49.9 7.7 50 7.7 50 7.7 50 7.7 50 7.7 50.1 7.6L51 6.1C51 6 51 5.9 51 5.9 50.9 5.9 50.9 5.9 50.8 5.9L49.9 7.5C49.9 7.6 49.9 7.7 49.9 7.7" class="a"/><path d="M49.5 13.4C49.5 13.4 49.5 13.4 49.6 13.4 49.6 13.4 49.6 13.4 49.6 13.4L50.9 11.2C51 11.2 51 11.1 50.9 11.1 50.9 11 50.8 11.1 50.8 11.1L49.5 13.3C49.4 13.3 49.5 13.4 49.5 13.4" class="a"/><path d="M51.2 10.5C51.2 10.5 51.3 10.5 51.3 10.5 51.3 10.5 51.4 10.5 51.4 10.5L51.8 9.8C51.8 9.7 51.8 9.7 51.8 9.7 51.7 9.6 51.6 9.6 51.6 9.7L51.2 10.4C51.2 10.4 51.2 10.5 51.2 10.5" class="a"/><path d="M52.2 8.9C52.2 8.9 52.2 8.9 52.2 8.9 52.3 8.9 52.3 8.9 52.3 8.9L55 4.4C55 4.4 55 4.3 55 4.3 54.9 4.2 54.8 4.3 54.8 4.3L52.1 8.8C52.1 8.8 52.1 8.9 52.2 8.9" class="a"/><path d="M35.4 37.8C35.3 37.7 35.3 37.8 35.2 37.8L33.8 40.2C33.8 40.3 33.8 40.3 33.9 40.4 33.9 40.4 33.9 40.4 33.9 40.4 33.9 40.4 34 40.4 34 40.3L35.4 37.9C35.5 37.9 35.4 37.8 35.4 37.8" class="a"/><path d="M36.5 35.9C36.4 35.9 36.3 35.9 36.3 36L35.6 37.3C35.5 37.3 35.6 37.4 35.6 37.4 35.6 37.4 35.6 37.4 35.7 37.4 35.7 37.4 35.7 37.4 35.8 37.4L36.5 36.1C36.5 36 36.5 36 36.5 35.9" class="a"/><path d="M55.3 10.1C55.2 10 55.1 10 55.1 10.1L50.3 18.2C50.3 18.3 50.3 18.3 50.3 18.4 50.3 18.4 50.4 18.4 50.4 18.4 50.4 18.4 50.4 18.4 50.5 18.3L55.3 10.2C55.3 10.1 55.3 10.1 55.3 10.1" class="a"/><path d="M55.8 9.1C55.9 9.1 55.9 9.1 55.9 9.1 55.9 9.1 56 9.1 56 9.1L57 7.4C57 7.3 57 7.3 56.9 7.2 56.9 7.2 56.8 7.2 56.8 7.3L55.8 8.9C55.8 9 55.8 9.1 55.8 9.1" class="a"/><path d="M52.3 19.1L55.8 13.2C55.9 13.2 55.8 13.1 55.8 13.1 55.7 13.1 55.7 13.1 55.6 13.1L52.1 19C52.1 19.1 52.1 19.2 52.2 19.2 52.2 19.2 52.2 19.2 52.2 19.2 52.2 19.2 52.3 19.2 52.3 19.1" class="a"/><path d="M56.1 12.5C56.1 12.5 56.2 12.5 56.2 12.5 56.2 12.5 56.3 12.5 56.3 12.5L59.1 7.7C59.2 7.6 59.1 7.6 59.1 7.5 59 7.5 59 7.5 59 7.6L56.1 12.4C56.1 12.4 56.1 12.5 56.1 12.5" class="a"/><g transform="translate(59.794521 0.603739)"><mask fill="white"><use xlink:href="#path-1"/></mask><path d="M0.6 4.9C0.6 4.9 0.6 4.9 0.6 4.9 0.7 4.9 0.7 4.9 0.7 4.9L3.5 0.2C3.5 0.2 3.5 0.1 3.4 0.1 3.4 0 3.3 0.1 3.3 0.1L0.5 4.8C0.5 4.8 0.5 4.9 0.6 4.9" mask="url(#mask-2)" class="a"/></g><path d="M59.3 7.1C59.3 7.1 59.4 7.2 59.4 7.2 59.4 7.2 59.4 7.1 59.5 7.1L60.1 6.1C60.1 6.1 60.1 6 60 6 60 5.9 59.9 5.9 59.9 6L59.3 7C59.3 7 59.3 7.1 59.3 7.1" class="a"/><path d="M60 11.7L59.4 12.7C59.4 12.7 59.4 12.8 59.5 12.8 59.5 12.8 59.5 12.8 59.5 12.8 59.5 12.8 59.6 12.8 59.6 12.8L60.2 11.8C60.2 11.7 60.2 11.7 60.1 11.7 60.1 11.6 60 11.6 60 11.7" class="a"/><path d="M58.5 25.4C58.5 25.4 58.6 25.4 58.6 25.4 58.6 25.4 58.7 25.4 58.7 25.3L63.5 17.2C63.6 17.1 63.5 17.1 63.5 17 63.4 17 63.4 17 63.3 17.1L58.5 25.2C58.5 25.3 58.5 25.3 58.5 25.4" class="a"/><path d="M63.9 16.3C64 16.3 64 16.3 64 16.3 64 16.3 64.1 16.3 64.1 16.2L68.3 9.1C68.4 9 68.4 9 68.3 8.9 68.3 8.9 68.2 8.9 68.2 9L63.9 16.1C63.9 16.2 63.9 16.2 63.9 16.3" class="a"/><path d="M60.4 28.9C60.5 28.9 60.5 28.9 60.5 28.9 60.5 28.9 60.6 28.8 60.6 28.8L61.7 27C61.7 26.9 61.7 26.8 61.7 26.8 61.6 26.8 61.5 26.8 61.5 26.8L60.4 28.7C60.4 28.8 60.4 28.8 60.4 28.9" class="a"/><path d="M65.2 20.9C65.1 20.9 65.1 20.9 65 20.9L62 26C62 26 62 26.1 62.1 26.1 62.1 26.1 62.1 26.1 62.1 26.1 62.1 26.1 62.2 26.1 62.2 26.1L65.2 21C65.2 21 65.2 20.9 65.2 20.9" class="a"/><path d="M65.7 20.1C65.7 20.1 65.7 20.1 65.8 20.1 65.8 20.1 65.8 20.1 65.9 20.1L69.7 13.5C69.8 13.5 69.8 13.4 69.7 13.4 69.7 13.3 69.6 13.4 69.6 13.4L65.7 19.9C65.6 20 65.7 20.1 65.7 20.1" class="a"/><path d="M67.3 20.5C67.2 20.5 67.2 20.5 67.1 20.6L64.5 24.9C64.5 25 64.5 25.1 64.6 25.1 64.6 25.1 64.6 25.1 64.6 25.1 64.7 25.1 64.7 25.1 64.7 25L67.3 20.7C67.4 20.6 67.3 20.6 67.3 20.5" class="a"/><path d="M67.6 20.1L67.9 19.7C68 19.6 67.9 19.5 67.9 19.5 67.8 19.5 67.8 19.5 67.7 19.6L67.5 20C67.4 20.1 67.5 20.1 67.5 20.2 67.5 20.2 67.5 20.2 67.6 20.2 67.6 20.2 67.6 20.2 67.6 20.1" class="a"/><path d="M68.1 19.1C68.1 19.1 68.2 19.1 68.2 19.1 68.2 19.1 68.3 19.1 68.3 19.1L71.5 13.6C71.5 13.6 71.5 13.5 71.5 13.5 71.4 13.5 71.4 13.5 71.3 13.5L68.1 19C68.1 19 68.1 19.1 68.1 19.1" class="a"/><path d="M63.8 38.8C63.7 38.8 63.7 38.8 63.6 38.9L62 41.7C61.9 41.7 61.9 41.8 62 41.8 62 41.8 62 41.8 62 41.8 62.1 41.8 62.1 41.8 62.1 41.8L63.8 39C63.8 38.9 63.8 38.9 63.8 38.8" class="a"/><path d="M64.4 37.7C64.4 37.7 64.3 37.7 64.3 37.8L63.9 38.4C63.9 38.4 63.9 38.5 64 38.5 64 38.5 64 38.5 64 38.5 64.1 38.5 64.1 38.5 64.1 38.5L64.5 37.9C64.5 37.8 64.5 37.8 64.4 37.7" class="a"/><path d="M65.9 35.2C65.9 35.2 65.8 35.2 65.8 35.3L65.3 36.1C65.2 36.2 65.3 36.2 65.3 36.3 65.3 36.3 65.3 36.3 65.4 36.3 65.4 36.3 65.4 36.3 65.4 36.2L66 35.4C66 35.3 66 35.2 65.9 35.2" class="a"/><path d="M66.6 34C66.6 34 66.5 34 66.5 34.1L66.3 34.5C66.2 34.5 66.2 34.6 66.3 34.6 66.3 34.6 66.3 34.6 66.3 34.6 66.4 34.6 66.4 34.6 66.4 34.6L66.7 34.2C66.7 34.1 66.7 34.1 66.6 34" class="a"/><path d="M67.5 32.6C67.5 32.6 67.4 32.6 67.4 32.6L67.1 33C67.1 33.1 67.1 33.1 67.2 33.1 67.2 33.2 67.2 33.2 67.2 33.2 67.3 33.2 67.3 33.1 67.3 33.1L67.5 32.7C67.6 32.7 67.5 32.6 67.5 32.6" class="a"/><path d="M71.9 25.1C71.9 25.1 71.8 25.1 71.8 25.2L67.6 32.1C67.6 32.2 67.6 32.3 67.7 32.3 67.7 32.3 67.7 32.3 67.7 32.3 67.8 32.3 67.8 32.3 67.8 32.2L72 25.3C72 25.2 72 25.2 71.9 25.1" class="a"/><path d="M73.8 22C73.7 22 73.7 22 73.7 22L72.4 24.2C72.3 24.3 72.3 24.3 72.4 24.4 72.4 24.4 72.4 24.4 72.4 24.4 72.5 24.4 72.5 24.4 72.5 24.3L73.8 22.2C73.9 22.1 73.8 22 73.8 22" class="a"/><path d="M36 25.4C36 25.4 36 25.4 36 25.4 36.1 25.4 36.1 25.4 36.1 25.3L39.3 20C39.3 20 39.3 19.9 39.3 19.9 39.2 19.8 39.1 19.9 39.1 19.9L35.9 25.2C35.9 25.3 35.9 25.3 36 25.4" class="b"/><path d="M40.6 17.6C40.6 17.6 40.5 17.6 40.5 17.6L39.3 19.5C39.3 19.6 39.3 19.7 39.4 19.7 39.4 19.7 39.4 19.7 39.4 19.7 39.4 19.7 39.5 19.7 39.5 19.7L40.6 17.8C40.7 17.7 40.7 17.6 40.6 17.6" class="b"/><path d="M36 31.2C36 31.2 36 31.2 36 31.2 36.1 31.2 36.1 31.2 36.1 31.2L40.2 24.3C40.2 24.3 40.2 24.2 40.2 24.2 40.1 24.1 40 24.2 40 24.2L35.9 31.1C35.9 31.1 35.9 31.2 36 31.2" class="b"/><path d="M43.6 23.4C43.5 23.3 43.5 23.4 43.4 23.4L39.4 30.3C39.3 30.3 39.4 30.4 39.4 30.4 39.4 30.4 39.4 30.4 39.5 30.4 39.5 30.4 39.5 30.4 39.5 30.4L43.6 23.5C43.7 23.5 43.6 23.4 43.6 23.4" class="b"/><path d="M40.5 23.8C40.5 23.8 40.5 23.8 40.5 23.8 40.5 23.8 40.6 23.8 40.6 23.8L41.6 22.2C41.6 22.1 41.6 22.1 41.5 22 41.5 22 41.4 22 41.4 22.1L40.4 23.7C40.4 23.7 40.4 23.8 40.5 23.8" class="b"/><path d="M39.2 30.9C39.1 30.8 39 30.8 39 30.9L38.1 32.5C38 32.5 38 32.6 38.1 32.6 38.1 32.7 38.1 32.7 38.2 32.7 38.2 32.7 38.2 32.6 38.2 32.6L39.2 31C39.2 31 39.2 30.9 39.2 30.9" class="b"/><path d="M49.1 20.4C49.1 20.4 49 20.4 49 20.4L47.4 23.1C47.4 23.1 47.4 23.2 47.4 23.2 47.4 23.2 47.5 23.2 47.5 23.2 47.5 23.2 47.5 23.2 47.6 23.2L49.1 20.5C49.2 20.5 49.2 20.4 49.1 20.4" class="b"/><path d="M49.9 19.1C49.8 19.1 49.7 19.1 49.7 19.2L49.2 20C49.2 20 49.2 20.1 49.3 20.1 49.3 20.1 49.3 20.1 49.3 20.1 49.4 20.1 49.4 20.1 49.4 20.1L49.9 19.3C49.9 19.2 49.9 19.2 49.9 19.1" class="b"/><path d="M52.9 23.8C52.8 23.8 52.8 23.8 52.8 23.9L52.3 24.7C52.3 24.7 52.3 24.8 52.3 24.8 52.3 24.8 52.4 24.8 52.4 24.8 52.4 24.8 52.5 24.8 52.5 24.8L52.9 24C53 23.9 52.9 23.9 52.9 23.8" class="b"/><path d="M58 26.5L58.4 25.9C58.4 25.8 58.4 25.7 58.3 25.7 58.3 25.7 58.2 25.7 58.2 25.7L57.9 26.2 58 26.5Z" class="a"/><path d="M57.9 26.2L54.6 31.7C54.6 31.8 54.6 31.9 54.7 31.9 54.7 31.9 54.7 31.9 54.7 31.9 54.7 31.9 54.8 31.9 54.8 31.8L58 26.5 57.9 26.2Z" class="b"/><path d="M60.5 32.2L60.9 31.5C60.9 31.4 60.9 31.4 60.9 31.3 60.8 31.3 60.7 31.3 60.7 31.4L60.4 31.9 60.5 32.2Z" class="a"/><path d="M60.4 31.9L57.7 36.5C57.6 36.5 57.7 36.6 57.7 36.6 57.7 36.6 57.7 36.6 57.8 36.6 57.8 36.6 57.8 36.6 57.8 36.6L60.5 32.2 60.4 31.9Z" class="b"/><path d="M61 31.1C61 31.1 61 31.1 61 31.1 61.1 31.1 61.1 31.1 61.1 31.1L64.4 25.6C64.4 25.6 64.4 25.5 64.3 25.5 64.3 25.5 64.2 25.5 64.2 25.5L61 31C60.9 31 60.9 31.1 61 31.1" class="a"/><path d="M34.8 33.3L35.7 31.8C35.7 31.7 35.7 31.7 35.7 31.7 35.6 31.6 35.5 31.6 35.5 31.7L34.6 33.2 34.8 33.3Z" class="b"/><path d="M34.6 33.2L33.4 35.2C33.4 35.3 33.4 35.3 33.4 35.4 33.5 35.4 33.5 35.4 33.5 35.4 33.5 35.4 33.6 35.4 33.6 35.3L34.8 33.3 34.6 33.2Z" class="a"/><path d="M47 17.8L49.3 13.9C49.4 13.9 49.3 13.8 49.3 13.8 49.2 13.8 49.2 13.8 49.1 13.8L46.8 17.8 47 17.8Z" class="a"/><path d="M46.8 17.8L43.8 22.8C43.8 22.9 43.8 22.9 43.8 22.9 43.9 23 43.9 23 43.9 23 43.9 23 44 22.9 44 22.9L47 17.8 46.8 17.8Z" class="b"/><path d="M54.3 21.8L59.2 13.5C59.2 13.4 59.2 13.3 59.2 13.3 59.1 13.3 59 13.3 59 13.4L54.1 21.6 54.3 21.8Z" class="a"/><path d="M54.1 21.6L53.6 22.4C53.6 22.4 53.6 22.5 53.7 22.5 53.7 22.6 53.7 22.6 53.7 22.6 53.8 22.6 53.8 22.5 53.8 22.5L54.3 21.8 54.1 21.6Z" class="b"/></g></svg>
