<svg xmlns="http://www.w3.org/2000/svg" width="38" height="38" viewBox="0 0 38 38"><desc>  Created with Sketch.</desc><g style="fill:none;stroke-linejoin:round"><g style="stroke-width:2;stroke:#FFCD00"><path d="M25.6 30.7C25.6 33.8 28.1 36.2 31.1 36.2 34.2 36.2 36.7 33.8 36.7 30.7 36.7 27.7 34.2 25.2 31.1 25.2 28.1 25.2 25.6 27.7 25.6 30.7L25.6 30.7Z"/><path d="M1.2 18.6C1.2 21.7 3.7 24.2 6.7 24.2 9.8 24.2 12.3 21.7 12.3 18.6 12.3 15.6 9.8 13.1 6.7 13.1 3.7 13.1 1.2 15.6 1.2 18.6L1.2 18.6Z"/><path d="M11.9 21.2L25.9 28.3"/><path d="M25.9 9L11.9 16.1"/><path d="M25.6 6.7C25.6 9.8 28.1 12.3 31.1 12.3 34.2 12.3 36.7 9.8 36.7 6.7 36.7 3.7 34.2 1.2 31.1 1.2 28.1 1.2 25.6 3.7 25.6 6.7L25.6 6.7Z"/></g></g></svg>
